<svg class="animated" id="freepik_stories-geek-convention" xmlns="http://www.w3.org/2000/svg" viewBox="0 0 500 500" version="1.1" xmlns:xlink="http://www.w3.org/1999/xlink" xmlns:svgjs="http://svgjs.com/svgjs"><style>svg#freepik_stories-geek-convention:not(.animated) .animable {opacity: 0;}svg#freepik_stories-geek-convention.animated #freepik--background-complete--inject-20 {animation: 6s Infinite  linear heartbeat;animation-delay: 0s;}svg#freepik_stories-geek-convention.animated #freepik--Banner--inject-20 {animation: 3s Infinite  linear floating;animation-delay: 0s;}svg#freepik_stories-geek-convention.animated #freepik--character-2--inject-20 {animation: 1.5s Infinite  linear floating;animation-delay: 0s;}svg#freepik_stories-geek-convention.animated #freepik--character-1--inject-20 {animation: 3s Infinite  linear floating;animation-delay: 0s;}svg#freepik_stories-geek-convention.animated #freepik--character-3--inject-20 {animation: 6s Infinite  linear floating;animation-delay: 0s;}            @keyframes heartbeat {                0% {                    transform: scale(1);                }                10% {                    transform: scale(1.1);                }                30% {                    transform: scale(1);                }                40% {                    transform: scale(1);                }                50% {                    transform: scale(1.1);                }                60% {                    transform: scale(1);                }                100% {                    transform: scale(1);                }            }                    @keyframes floating {                0% {                    opacity: 1;                    transform: translateY(0px);                }                50% {                    transform: translateY(-10px);                }                100% {                    opacity: 1;                    transform: translateY(0px);                }            }        </style><g id="freepik--background-complete--inject-20" class="animable" style="transform-origin: 250px 228.23px;"><rect x="416.78" y="398.49" width="33.12" height="0.25" style="fill: rgb(235, 235, 235); transform-origin: 433.34px 398.615px;" id="ele0bla7m66it" class="animable"></rect><rect x="322.53" y="401.21" width="8.69" height="0.25" style="fill: rgb(235, 235, 235); transform-origin: 326.875px 401.335px;" id="elzalsrnlaxnc" class="animable"></rect><rect x="396.59" y="389.21" width="19.19" height="0.25" style="fill: rgb(235, 235, 235); transform-origin: 406.185px 389.335px;" id="elucmtsnbful" class="animable"></rect><rect x="52.46" y="390.89" width="43.19" height="0.25" style="fill: rgb(235, 235, 235); transform-origin: 74.055px 391.015px;" id="elpbx6i1syvl" class="animable"></rect><rect x="104.56" y="390.89" width="6.33" height="0.25" style="fill: rgb(235, 235, 235); transform-origin: 107.725px 391.015px;" id="el6wzitd68zh2" class="animable"></rect><rect x="131.47" y="395.11" width="93.68" height="0.25" style="fill: rgb(235, 235, 235); transform-origin: 178.31px 395.235px;" id="elu07hflk33uj" class="animable"></rect><path d="M237,337.8H43.92a5.71,5.71,0,0,1-5.71-5.71V60.66A5.71,5.71,0,0,1,43.92,55H237a5.71,5.71,0,0,1,5.71,5.71V332.09A5.71,5.71,0,0,1,237,337.8ZM43.92,55.2a5.47,5.47,0,0,0-5.46,5.46V332.09a5.47,5.47,0,0,0,5.46,5.46H237a5.47,5.47,0,0,0,5.46-5.46V60.66A5.47,5.47,0,0,0,237,55.2Z" style="fill: rgb(235, 235, 235); transform-origin: 140.46px 196.4px;" id="elri862nv3lhm" class="animable"></path><path d="M453.31,337.8H260.21a5.72,5.72,0,0,1-5.71-5.71V60.66A5.72,5.72,0,0,1,260.21,55h193.1A5.71,5.71,0,0,1,459,60.66V332.09A5.71,5.71,0,0,1,453.31,337.8ZM260.21,55.2a5.47,5.47,0,0,0-5.46,5.46V332.09a5.47,5.47,0,0,0,5.46,5.46h193.1a5.47,5.47,0,0,0,5.46-5.46V60.66a5.47,5.47,0,0,0-5.46-5.46Z" style="fill: rgb(235, 235, 235); transform-origin: 356.75px 196.4px;" id="eliqte439cl3c" class="animable"></path><rect y="382.4" width="500" height="0.25" style="fill: rgb(235, 235, 235); transform-origin: 250px 382.525px;" id="eli1ipz6939y" class="animable"></rect><rect x="52.29" y="277.68" width="6.07" height="100.27" style="fill: rgb(235, 235, 235); transform-origin: 55.325px 327.815px;" id="el1cnrqkfb6gz" class="animable"></rect><path d="M60.47,270.88a5.15,5.15,0,1,1-5.14-5.15A5.14,5.14,0,0,1,60.47,270.88Z" style="fill: rgb(240, 240, 240); transform-origin: 55.32px 270.88px;" id="ela2n31ldyols" class="animable"></path><path d="M58.49,279.67H52.17a2,2,0,0,1-2-2h0a2,2,0,0,1,2-2h6.32a2,2,0,0,1,2,2h0A2,2,0,0,1,58.49,279.67Z" style="fill: rgb(240, 240, 240); transform-origin: 55.33px 277.67px;" id="el0le84qr2cvag" class="animable"></path><path d="M68.17,381.92H42.49a4,4,0,0,1,4-4H64.2a4,4,0,0,1,4,4Z" style="fill: rgb(224, 224, 224); transform-origin: 55.345px 379.92px;" id="elc4k359c784j" class="animable"></path><rect x="147.22" y="277.68" width="6.07" height="100.27" style="fill: rgb(235, 235, 235); transform-origin: 150.255px 327.815px;" id="eln4m18tujhp" class="animable"></rect><path d="M155.4,270.88a5.15,5.15,0,1,1-5.15-5.15A5.14,5.14,0,0,1,155.4,270.88Z" style="fill: rgb(240, 240, 240); transform-origin: 150.25px 270.88px;" id="els2fs10u079" class="animable"></path><path d="M153.41,279.67h-6.32a2,2,0,0,1-2-2h0a2,2,0,0,1,2-2h6.32a2,2,0,0,1,2,2h0A2,2,0,0,1,153.41,279.67Z" style="fill: rgb(240, 240, 240); transform-origin: 150.25px 277.67px;" id="el1sor8qhzwz" class="animable"></path><path d="M163.09,381.92H137.41a4,4,0,0,1,4-4h17.74a4,4,0,0,1,4,4Z" style="fill: rgb(224, 224, 224); transform-origin: 150.28px 379.92px;" id="eldovo6t7rva8" class="animable"></path><rect x="242.14" y="277.68" width="6.07" height="100.27" style="fill: rgb(235, 235, 235); transform-origin: 245.175px 327.815px;" id="elg53p8lopojk" class="animable"></rect><path d="M250.32,270.88a5.15,5.15,0,1,1-5.14-5.15A5.14,5.14,0,0,1,250.32,270.88Z" style="fill: rgb(240, 240, 240); transform-origin: 245.17px 270.88px;" id="elc6kuxrq0qps" class="animable"></path><path d="M248.34,279.67H242a2,2,0,0,1-2-2h0a2,2,0,0,1,2-2h6.32a2,2,0,0,1,2,2h0A2,2,0,0,1,248.34,279.67Z" style="fill: rgb(240, 240, 240); transform-origin: 245.16px 277.67px;" id="ely5nb6f3d90j" class="animable"></path><path d="M258,381.92H232.34a4,4,0,0,1,4-4h17.74a4,4,0,0,1,4,4Z" style="fill: rgb(224, 224, 224); transform-origin: 245.21px 379.92px;" id="elp5jsa9nd44" class="animable"></path><rect x="431.99" y="277.68" width="6.07" height="100.27" style="fill: rgb(235, 235, 235); transform-origin: 435.025px 327.815px;" id="elayjvjebr2ck" class="animable"></rect><path d="M440.17,270.88a5.15,5.15,0,1,1-5.14-5.15A5.14,5.14,0,0,1,440.17,270.88Z" style="fill: rgb(240, 240, 240); transform-origin: 435.02px 270.88px;" id="el0pyhjedtsgok" class="animable"></path><path d="M438.19,279.67h-6.32a2,2,0,0,1-2-2h0a2,2,0,0,1,2-2h6.32a2,2,0,0,1,2,2h0A2,2,0,0,1,438.19,279.67Z" style="fill: rgb(240, 240, 240); transform-origin: 435.03px 277.67px;" id="elen56keuwl26" class="animable"></path><path d="M447.87,381.92H422.19a4,4,0,0,1,4-4H443.9a4,4,0,0,1,4,4Z" style="fill: rgb(224, 224, 224); transform-origin: 435.045px 379.92px;" id="elr45sm8xr4zp" class="animable"></path><rect x="337.07" y="277.68" width="6.07" height="100.27" style="fill: rgb(235, 235, 235); transform-origin: 340.105px 327.815px;" id="el5umiktgxkkh" class="animable"></rect><path d="M345.25,270.88a5.15,5.15,0,1,1-5.15-5.15A5.15,5.15,0,0,1,345.25,270.88Z" style="fill: rgb(240, 240, 240); transform-origin: 340.1px 270.88px;" id="eld6a07g3a8y" class="animable"></path><path d="M343.26,279.67h-6.32a2,2,0,0,1-2-2h0a2,2,0,0,1,2-2h6.32a2,2,0,0,1,2,2h0A2,2,0,0,1,343.26,279.67Z" style="fill: rgb(240, 240, 240); transform-origin: 340.1px 277.67px;" id="elneytr572kgq" class="animable"></path><path d="M352.94,381.92H327.26a4,4,0,0,1,4-4H349a4,4,0,0,1,4,4Z" style="fill: rgb(224, 224, 224); transform-origin: 340.13px 379.92px;" id="elg89kjllrg7n" class="animable"></path><path d="M145.66,278.76a60,60,0,0,1-83.8,0c-1.73-1.67-4.37,1-2.64,2.64a63.86,63.86,0,0,0,89.08,0c1.74-1.67-.91-4.31-2.64-2.64Z" style="fill: rgb(224, 224, 224); transform-origin: 103.762px 288.862px;" id="el8bdz0du2amv" class="animable"></path><path d="M239.13,278.76a60,60,0,0,1-83.79,0c-1.74-1.67-4.38,1-2.64,2.64a63.85,63.85,0,0,0,89.07,0c1.74-1.67-.9-4.31-2.64-2.64Z" style="fill: rgb(224, 224, 224); transform-origin: 197.235px 288.861px;" id="els9c8z4jgh2c" class="animable"></path><path d="M334.6,278.76a60,60,0,0,1-83.79,0c-1.74-1.67-4.38,1-2.64,2.64a63.85,63.85,0,0,0,89.07,0c1.74-1.67-.9-4.31-2.64-2.64Z" style="fill: rgb(224, 224, 224); transform-origin: 292.705px 288.861px;" id="elu07neo67z1" class="animable"></path><path d="M429.4,278.76a60,60,0,0,1-83.8,0c-1.73-1.67-4.37,1-2.64,2.64a63.86,63.86,0,0,0,89.08,0c1.73-1.67-.91-4.31-2.64-2.64Z" style="fill: rgb(224, 224, 224); transform-origin: 387.5px 288.862px;" id="elpb2pa3kge6s" class="animable"></path><rect x="229.89" y="60.59" width="1.49" height="59.34" style="fill: rgb(240, 240, 240); transform-origin: 230.635px 90.26px;" id="el4ov83e7rvxd" class="animable"></rect><path d="M188.44,125.35c0,14.61,19.32,26.45,43.17,26.45a65.82,65.82,0,0,0,20.22-3.08c11.16,4.25,22.94,1.61,22.94,1.61V147a36.86,36.86,0,0,1-10.92-4.11c6.79-4.67,10.92-10.82,10.92-17.57a15.2,15.2,0,0,0-.09-1.65,14.93,14.93,0,0,0,.09-1.65c0-14.61-19.32-26.45-43.16-26.45s-43.17,11.84-43.17,26.45Z" style="fill: rgb(224, 224, 224); transform-origin: 231.605px 123.685px;" id="el7blpn9s47z" class="animable"></path><path d="M274.77,122.05c0-14.61-19.32-26.45-43.16-26.45s-43.17,11.84-43.17,26.45,19.32,26.45,43.17,26.45a65.82,65.82,0,0,0,20.22-3.08C263,149.67,274.77,147,274.77,147a38,38,0,0,1-13.58-5.73C269.55,136.48,274.77,129.64,274.77,122.05Z" style="fill: rgb(245, 245, 245); transform-origin: 231.605px 122.05px;" id="eljl7jpshf6a" class="animable"></path><rect x="105.91" y="60.59" width="1.49" height="59.34" style="fill: rgb(240, 240, 240); transform-origin: 106.655px 90.26px;" id="el9rh8t8f6ix" class="animable"></rect><g id="el72877ir75f"><circle cx="115.69" cy="126.59" r="30.99" style="fill: rgb(235, 235, 235); transform-origin: 115.69px 126.59px; transform: rotate(-22.5deg);" class="animable"></circle></g><path d="M122.22,150.18s13.64-7.61,21.93-1.41,14.39-.51,14.39-.51l-5.23,8.45s-6.06,2.41-12.74-2.6-22.37-.44-22.37-.44Z" style="fill: rgb(224, 224, 224); transform-origin: 138.37px 151.814px;" id="el3nkdstgcqr4" class="animable"></path><g id="elmj2wae6ed1"><circle cx="107.4" cy="126.59" r="30.99" style="fill: rgb(245, 245, 245); transform-origin: 107.4px 126.59px; transform: rotate(-22.5deg);" class="animable"></circle></g><circle cx="107.4" cy="126.59" r="2.15" style="fill: rgb(224, 224, 224); transform-origin: 107.4px 126.59px;" id="elftq75770kxi" class="animable"></circle><circle cx="107.4" cy="109.63" r="4.91" style="fill: rgb(235, 235, 235); transform-origin: 107.4px 109.63px;" id="el6xkqzm9sa57" class="animable"></circle><circle cx="107.4" cy="143.86" r="4.91" style="fill: rgb(235, 235, 235); transform-origin: 107.4px 143.86px;" id="elyxjoxqmobd" class="animable"></circle><g id="elyojjvp7ybtt"><circle cx="92.58" cy="118.18" r="4.91" style="fill: rgb(235, 235, 235); transform-origin: 92.58px 118.18px; transform: rotate(-15deg);" class="animable"></circle></g><g id="elxrodl7a2cj"><circle cx="122.22" cy="135.3" r="4.91" style="fill: rgb(235, 235, 235); transform-origin: 122.22px 135.3px; transform: rotate(-87.85deg);" class="animable"></circle></g><g id="elq1wr4aiu8w"><circle cx="92.58" cy="135.3" r="4.91" style="fill: rgb(235, 235, 235); transform-origin: 92.58px 135.3px; transform: rotate(-75deg);" class="animable"></circle></g><g id="elnk50c34che"><circle cx="122.22" cy="118.18" r="4.91" style="fill: rgb(235, 235, 235); transform-origin: 122.22px 118.18px; transform: rotate(-2.15deg);" class="animable"></circle></g><path d="M359,119.65h-1.49V61.05a.75.75,0,0,1,.75-.74h0a.74.74,0,0,1,.74.74Z" style="fill: rgb(240, 240, 240); transform-origin: 358.255px 89.98px;" id="elnwgv444r04" class="animable"></path><rect x="328.42" y="109.33" width="58.48" height="27.15" style="fill: rgb(230, 230, 230); transform-origin: 357.66px 122.905px;" id="el3jugal5vi9u" class="animable"></rect><path d="M347.43,131.75c-4.84,8.38-25,27.65-33.41,22.81s-1.79-32,3.05-40.34a17.53,17.53,0,1,1,30.36,17.53Z" style="fill: rgb(240, 240, 240); transform-origin: 329.938px 130.302px;" id="elli547tasq2l" class="animable"></path><path d="M367.88,131.75c4.84,8.38,25,27.65,33.41,22.81s1.79-32-3.05-40.34a17.53,17.53,0,1,0-30.36,17.53Z" style="fill: rgb(240, 240, 240); transform-origin: 385.372px 130.302px;" id="elztjs9qm0whn" class="animable"></path><path d="M336.68,118.49h-3.09V115.4a1.92,1.92,0,0,0-1.93-1.93h-1.8a1.92,1.92,0,0,0-1.93,1.93v3.09h-3.09a1.94,1.94,0,0,0-1.94,1.93v1.8a1.93,1.93,0,0,0,1.94,1.93h3.09v3.1a1.93,1.93,0,0,0,1.93,1.93h1.8a1.93,1.93,0,0,0,1.93-1.93v-3.1h3.09a1.93,1.93,0,0,0,1.94-1.93v-1.8A1.94,1.94,0,0,0,336.68,118.49Z" style="fill: rgb(224, 224, 224); transform-origin: 330.76px 121.325px;" id="el81fmqyh60c9" class="animable"></path><path d="M379,116.79a2.86,2.86,0,1,1-2.85-2.86A2.85,2.85,0,0,1,379,116.79Z" style="fill: rgb(224, 224, 224); transform-origin: 376.14px 116.79px;" id="elhjcl0a1wcxn" class="animable"></path><path d="M388.81,116.79a2.86,2.86,0,1,1-2.86-2.86A2.86,2.86,0,0,1,388.81,116.79Z" style="fill: rgb(224, 224, 224); transform-origin: 385.95px 116.79px;" id="el7chehp81oea" class="animable"></path><path d="M384.14,125.19a2.86,2.86,0,1,1-2.85-2.86A2.85,2.85,0,0,1,384.14,125.19Z" style="fill: rgb(224, 224, 224); transform-origin: 381.28px 125.19px;" id="elaidsp12nu5" class="animable"></path><circle cx="391.05" cy="125.19" r="2.86" style="fill: rgb(224, 224, 224); transform-origin: 391.05px 125.19px;" id="elrhplu5g8db" class="animable"></circle><path d="M355.17,132.24H352a.93.93,0,0,1-.93-.93h0a.93.93,0,0,1,.93-.92h3.2a.93.93,0,0,1,.93.92h0A.93.93,0,0,1,355.17,132.24Z" style="fill: rgb(250, 250, 250); transform-origin: 353.6px 131.315px;" id="elu4p8m2g7rns" class="animable"></path><path d="M362.39,132.24h-3.2a.92.92,0,0,1-.92-.93h0a.92.92,0,0,1,.92-.92h3.2a.93.93,0,0,1,.93.92h0A.93.93,0,0,1,362.39,132.24Z" style="fill: rgb(250, 250, 250); transform-origin: 360.795px 131.315px;" id="el9e51qkbg9hm" class="animable"></path></g><g id="freepik--Shadow--inject-20" class="animable" style="transform-origin: 245.18px 412.39px;"><ellipse id="freepik--path--inject-20" cx="245.18" cy="412.39" rx="193.89" ry="11.32" style="fill: rgb(245, 245, 245); transform-origin: 245.18px 412.39px;" class="animable"></ellipse></g><g id="freepik--Banner--inject-20" class="animable" style="transform-origin: 379.85px 297.195px;"><g id="elzdl0pxt76j"><path d="M335.9,385.85s0,0,0-.05v.05Z" style="fill: rgb(255, 255, 255); opacity: 0.5; transform-origin: 335.9px 385.825px;" class="animable"></path></g><g id="elhp5vb9g6ojp"><path d="M354.9,288.1c-.34,1.71,2.24,6.35,2.24,6.35l2-.44.77-12.54C357.9,283.5,355.24,286.41,354.9,288.1Z" style="fill: rgb(255, 255, 255); opacity: 0.5; transform-origin: 357.39px 287.96px;" class="animable"></path></g><g id="el55wjv9xjzeh"><path d="M384.54,279.27l-2.71,14.58.95.18s6.87-3.39,7.38-5.75S386.56,281.35,384.54,279.27ZM384,291.46l1.55-8.38c2.22,2.67,3,4.39,2.9,4.94C388.22,288.69,386.29,290.14,384,291.46Z" style="fill: rgb(255, 255, 255); opacity: 0.5; transform-origin: 386.017px 286.65px;" class="animable"></path></g><g id="eldabyli87dqk"><path d="M367.63,314.74l-8.74,28.46a69.37,69.37,0,0,1-.22,7c-1.39,8.37-9.92,32.76-9.92,32.76l.09,2.72a1.52,1.52,0,0,1,0,.21h16.3v0a1.33,1.33,0,0,1,.87-1.18l6.37-2.32Zm-9.74,58.87,3.59-33.06,5-16.47,3.74,53.64-1.91,1.1Z" style="fill: rgb(255, 255, 255); opacity: 0.5; transform-origin: 360.565px 350.315px;" class="animable"></path></g><polygon points="422.55 397.17 331.63 397.17 342.84 183.19 433.76 183.19 422.55 397.17" style="fill: rgb(0, 255, 136); transform-origin: 382.695px 290.18px;" id="el6p4hiwyy16n" class="animable"></polygon><g id="elq6ynbb00n0e"><polygon points="422.55 397.17 331.63 397.17 342.84 183.19 433.76 183.19 422.55 397.17" style="fill: rgb(255, 255, 255); opacity: 0.5; transform-origin: 382.695px 290.18px;" class="animable"></polygon></g><g id="ellzsy7k9m6t"><g style="opacity: 0.9; transform-origin: 387.342px 202.01px;" class="animable"><path d="M362.62,201.7h4.09l-.41,7.85a12.45,12.45,0,0,1-3.75,1.82,14.23,14.23,0,0,1-4.2.64,11,11,0,0,1-5.35-1.28,8.85,8.85,0,0,1-3.58-3.57,9.42,9.42,0,0,1-1.1-5.15,10.16,10.16,0,0,1,1.64-5.16,10.38,10.38,0,0,1,4-3.56,11.89,11.89,0,0,1,5.54-1.28,11.67,11.67,0,0,1,4.57.85,8.45,8.45,0,0,1,3.35,2.49l-3,2.65a6.33,6.33,0,0,0-4.89-2.18,7.17,7.17,0,0,0-3.33.77,6,6,0,0,0-2.35,2.19,6.62,6.62,0,0,0-1,3.23,6.21,6.21,0,0,0,.63,3.2,5.32,5.32,0,0,0,2.11,2.2,6.42,6.42,0,0,0,3.21.79,7.52,7.52,0,0,0,3.52-.83Z" style="fill: rgb(255, 255, 255); transform-origin: 357.857px 202.01px;" id="elasbwptrn717" class="animable"></path><path d="M385.49,208.09l-.19,3.59h-15l1-19.34H386l-.19,3.59H375.6l-.22,4.2h9l-.18,3.48h-9l-.23,4.48Z" style="fill: rgb(255, 255, 255); transform-origin: 378.15px 202.01px;" id="elviuxw7ee6tl" class="animable"></path><path d="M404,208.09l-.19,3.59h-15l1-19.34H404.5l-.19,3.59H394.14l-.22,4.2h9l-.18,3.48h-9l-.24,4.48Z" style="fill: rgb(255, 255, 255); transform-origin: 396.655px 202.01px;" id="elk8r3nzmp9zr" class="animable"></path><path d="M414.85,204.08l-2.74,2.71-.25,4.89h-4.45l1-19.34h4.45l-.47,9,9-9h5L417.94,201l7.92,10.72h-5.22Z" style="fill: rgb(255, 255, 255); transform-origin: 416.9px 202.03px;" id="eln863m03lz1" class="animable"></path></g></g><g id="eliwn4ndj4e2f"><g style="opacity: 0.9; transform-origin: 412.416px 301.574px;" class="animable"><path d="M409.14,221.73a9,9,0,0,1,3.26-3.25,8.79,8.79,0,0,1,4.52-1.18,8.15,8.15,0,0,1,4.39,1.18,7.73,7.73,0,0,1,2.92,3.25,9.47,9.47,0,0,1,.86,4.65,10,10,0,0,1-1,3.93,8.51,8.51,0,0,1-2.35,3l-2.17-2.49a5.62,5.62,0,0,0,2.18-4.21,5.36,5.36,0,0,0-.53-2.77,4.46,4.46,0,0,0-1.8-1.9,5.43,5.43,0,0,0-2.74-.68,5.84,5.84,0,0,0-2.81.68,5.29,5.29,0,0,0-2,1.9,5.83,5.83,0,0,0-.82,2.77,5,5,0,0,0,1.76,4.21l-2.42,2.49a7.26,7.26,0,0,1-2.07-3,9.47,9.47,0,0,1-.56-3.94A10,10,0,0,1,409.14,221.73Z" style="fill: rgb(255, 255, 255); transform-origin: 416.425px 225.304px;" id="elybp2tk2wye" class="animable"></path><path d="M408.25,238.92a9.1,9.1,0,0,1,3.27-3.28,8.79,8.79,0,0,1,4.5-1.18,8.13,8.13,0,0,1,4.37,1.18,7.69,7.69,0,0,1,2.92,3.28,9.41,9.41,0,0,1,.88,4.69,10.11,10.11,0,0,1-1.37,4.69,9,9,0,0,1-3.27,3.27,8.65,8.65,0,0,1-4.49,1.2,8,8,0,0,1-4.37-1.2,7.74,7.74,0,0,1-2.93-3.27,9.38,9.38,0,0,1-.87-4.69A10.13,10.13,0,0,1,408.25,238.92Zm2.47,7.37a4.61,4.61,0,0,0,1.81,1.88,5.39,5.39,0,0,0,2.73.68,5.84,5.84,0,0,0,2.81-.68,5.32,5.32,0,0,0,2-1.88,5.48,5.48,0,0,0,.82-2.68,5.15,5.15,0,0,0-.54-2.67,4.47,4.47,0,0,0-1.8-1.88,5.43,5.43,0,0,0-2.74-.68,5.87,5.87,0,0,0-2.81.68,5.31,5.31,0,0,0-2,1.88,5.55,5.55,0,0,0-.82,2.67A5.19,5.19,0,0,0,410.72,246.29Z" style="fill: rgb(255, 255, 255); transform-origin: 415.539px 243.615px;" id="eld47lhbha15" class="animable"></path><path d="M422.47,271H405.73l.17-3.18,10.6-8.34H406.34l.2-3.83h16.73l-.17,3.21-10.59,8.32h10.16Z" style="fill: rgb(255, 255, 255); transform-origin: 414.5px 263.325px;" id="elukbeuoe000d" class="animable"></path><path d="M421.42,291l-16.35-7.24.2-3.83,17.11-7.22-.22,4.19L409.94,282l11.68,5.16Z" style="fill: rgb(255, 255, 255); transform-origin: 413.725px 281.855px;" id="elntosxz9pnzb" class="animable"></path><path d="M407,305.33h-3.1l.68-13h16.73L420.69,305h-3.11l.46-8.8H414.4L414,304h-3l.4-7.77h-3.87Z" style="fill: rgb(255, 255, 255); transform-origin: 412.605px 298.83px;" id="el6a73iegkg7m" class="animable"></path><path d="M419.7,323.76H403l.17-3.18,10.59-8.34H403.58l.2-3.83h16.73l-.17,3.2-10.6,8.32H419.9Z" style="fill: rgb(255, 255, 255); transform-origin: 411.755px 316.085px;" id="elqc9vro7dhv" class="animable"></path><path d="M416.16,331.19l.28-5.35h3.15l-.76,14.58h-3.15l.28-5.36H402.38l.2-3.87Z" style="fill: rgb(255, 255, 255); transform-origin: 410.985px 333.13px;" id="elilpwypaf9m" class="animable"></path><path d="M418.72,342.5l-.2,3.87H401.79l.2-3.87Z" style="fill: rgb(255, 255, 255); transform-origin: 410.255px 344.435px;" id="elxh708aqtmn" class="animable"></path><path d="M402.24,353.74a9,9,0,0,1,3.26-3.27,8.8,8.8,0,0,1,4.5-1.19,8.11,8.11,0,0,1,4.37,1.19,7.81,7.81,0,0,1,2.93,3.27,9.53,9.53,0,0,1,.87,4.7,10.07,10.07,0,0,1-1.37,4.68,9.15,9.15,0,0,1-3.26,3.28,8.8,8.8,0,0,1-4.5,1.19,8.11,8.11,0,0,1-4.37-1.19,7.9,7.9,0,0,1-2.93-3.28,9.45,9.45,0,0,1-.87-4.68A10,10,0,0,1,402.24,353.74Zm2.47,7.38a4.5,4.5,0,0,0,1.8,1.87,5.33,5.33,0,0,0,2.74.68,5.69,5.69,0,0,0,2.8-.68,5.22,5.22,0,0,0,2-1.87,5.48,5.48,0,0,0,.82-2.68,5,5,0,0,0-.54-2.68,4.53,4.53,0,0,0-1.8-1.88,5.43,5.43,0,0,0-2.74-.68,5.8,5.8,0,0,0-2.8.68,5.24,5.24,0,0,0-2,1.88,5.48,5.48,0,0,0-.82,2.68A5,5,0,0,0,404.71,361.12Z" style="fill: rgb(255, 255, 255); transform-origin: 409.52px 358.435px;" id="elfye9mrwjqui" class="animable"></path><path d="M416.45,385.85H399.72l.16-3.18,10.6-8.34H400.32l.2-3.82h16.73l-.16,3.2L406.49,382h10.16Z" style="fill: rgb(255, 255, 255); transform-origin: 408.485px 378.18px;" id="elv57xkkdljr" class="animable"></path></g></g><g id="ell4q6tlz4pe"><path d="M401.37,258.77l.83-15.84-16.47-10.55-.19,2.45L383,231.07l-.1,2-1.49-2.44.15-2.87,2.1-.86,3.29.78-2,.89,3.28.88-1.81.88,15.91,11.16,1.1-20.92h-56L338.69,385.8a1.26,1.26,0,0,1,.84-1.13L346,382.3l13.79-75.54.35-7.94-2.8-1s-6.06-4.4-7.08-6.33a6.54,6.54,0,0,1-.43-3.4c1.21-5,11.64-17,11.64-17l9.26-.5,1.3-3.05h-3.11l-2.2-2.79,1.93-9a3.29,3.29,0,0,1-.32-4.89c2.33-2.81,2.45,1.21,5.12,1.86s8.47,3.29,6.94,5.73-2.94,7.87-2.94,7.87l.13,3.92,9.46-.48s10.69,13,11.56,18.47a5.64,5.64,0,0,1-.79,3.41c-2.35,2.69-13.82,5.1-13.82,5.1l-1.62.8-1.34,8A92.19,92.19,0,0,1,382,315c-.09,7.12-2.72,26.61-2.72,26.61a69.71,69.71,0,0,1,2.06,7.69c.93,8.07-.94,32.73-.94,32.73l.38,3.53a1,1,0,0,1,0,.25h14l.47-8.93-.06.05-12.4-4.25c.45-7.92.89-18.72.31-23.67a60.35,60.35,0,0,0-2-7.64c.38-2.85,2.6-19.77,2.69-26.44a85.47,85.47,0,0,0-.92-9.47l1.14-6.79.57-.28a74,74,0,0,0,8.65-2.4l5.36,17.48,2.74-52.43-31.08-19.91-.32,4.13L365.48,239l-.18,3.32-2.5-4.13.25-4.84,3.54-1.43,5.55,1.31-3.38,1.49,5.53,1.49-3,1.48Z" style="fill: rgb(255, 255, 255); opacity: 0.5; transform-origin: 371.06px 303.19px;" class="animable"></path></g><path d="M329.33,395.07h91.52a3.39,3.39,0,0,1,3.39,3.39V411.2a0,0,0,0,1,0,0H325.94a0,0,0,0,1,0,0V398.46A3.39,3.39,0,0,1,329.33,395.07Z" style="fill: rgb(38, 50, 56); transform-origin: 375.09px 403.135px;" id="ely27i4m7ltq" class="animable"></path><path d="M336.07,395.07H427.6a3.39,3.39,0,0,1,3.39,3.39V411.2a0,0,0,0,1,0,0H332.68a0,0,0,0,1,0,0V398.46A3.39,3.39,0,0,1,336.07,395.07Z" style="fill: rgb(38, 50, 56); transform-origin: 381.835px 403.135px;" id="elhmpkldjszzl" class="animable"></path><g id="eljekg4dvea5"><g style="opacity: 0.3; transform-origin: 381.835px 403.135px;" class="animable"><path d="M336.07,395.07H427.6a3.39,3.39,0,0,1,3.39,3.39V411.2a0,0,0,0,1,0,0H332.68a0,0,0,0,1,0,0V398.46A3.39,3.39,0,0,1,336.07,395.07Z" style="fill: rgb(255, 255, 255); transform-origin: 381.835px 403.135px;" id="elbixu23v6x8h" class="animable"></path></g></g><path d="M329.33,395.07h91.52a3.39,3.39,0,0,1,3.39,3.39V411.2a0,0,0,0,1,0,0H325.94a0,0,0,0,1,0,0V398.46A3.39,3.39,0,0,1,329.33,395.07Z" style="fill: rgb(38, 50, 56); transform-origin: 375.09px 403.135px;" id="elgh933xg8evv" class="animable"></path><g id="elrdwgat0tofm"><path d="M329.33,395.07h91.52a3.39,3.39,0,0,1,3.39,3.39V411.2a0,0,0,0,1,0,0H325.94a0,0,0,0,1,0,0V398.46A3.39,3.39,0,0,1,329.33,395.07Z" style="fill: rgb(255, 255, 255); opacity: 0.5; transform-origin: 375.09px 403.135px;" class="animable"></path></g></g><g id="freepik--character-2--inject-20" class="animable" style="transform-origin: 188.165px 284.822px;"><path d="M223.35,265.6c2.15,14.89,4.15,61.7,4.94,76.72.9,17.39,3.26,52.84,3.26,52.84s-2.43,1.93-7.41,1.13c0,0-13-38.92-9.27-54.06l-12.63-59s-10-11.14-.55-25.55l19.38-2.6S223,262.94,223.35,265.6Z" style="fill: rgb(235, 179, 118); transform-origin: 214.589px 325.782px;" id="elhd19sieg48h" class="animable"></path><path d="M226.2,297.79c-.75-12-1.7-24.26-2.85-32.19-.38-2.66-2.28-10.48-2.28-10.48l-19.38,2.6c-9.46,14.41.55,25.55.55,25.55l5.14,18C211.89,299.76,219.21,297.78,226.2,297.79Z" style="fill: rgb(0, 255, 136); transform-origin: 211.912px 278.195px;" id="el4kako83gopa" class="animable"></path><g id="elopqjcfhhdmo"><path d="M226.2,297.79c-.75-12-1.7-24.26-2.85-32.19-.38-2.66-2.28-10.48-2.28-10.48l-19.38,2.6c-9.46,14.41.55,25.55.55,25.55l5.14,18C211.89,299.76,219.21,297.78,226.2,297.79Z" style="opacity: 0.3; transform-origin: 211.912px 278.195px;" class="animable"></path></g><path d="M242.22,408.07a12.5,12.5,0,0,1-6.93-6.51L232,395.12l.41-3.22s-2.93-2.21-5.26-.77a12,12,0,0,1-4.73,1.65l1.14,3.65c-1.38,1.26-.76,10.46-.22,14.4h1.1a43.15,43.15,0,0,0,.84-7c3.36,9.12,18.64,7.95,18.91,6C244.25,409.14,243.37,408.54,242.22,408.07Z" style="fill: rgb(38, 50, 56); transform-origin: 233.306px 400.918px;" id="elld55ap4lbic" class="animable"></path><path d="M208.67,266.85c-.12,15-2.67,61.73-4.16,76.7-1.73,17.33-7.27,52.62-7.27,52.62s-2.69,1.54-7.49,0c0,0-4.45-40.33,1.51-54.73L184,281s-4.8-12,6.72-24.82H208S208.69,264.17,208.67,266.85Z" style="fill: rgb(235, 179, 118); transform-origin: 195.839px 326.517px;" id="el9iukg5om2e" class="animable"></path><path d="M190.71,256.14C179.19,269,184,281,184,281l2.9,18.87c3.5-.47,10.27-.71,19.5,1.95,1.17-12.79,2.21-26.31,2.28-34.93,0-2.68-.67-10.71-.67-10.71Z" style="fill: rgb(0, 255, 136); transform-origin: 195.842px 278.98px;" id="elihcg813fx2" class="animable"></path><g id="elbk6xob9w0s5"><path d="M190.71,256.14C179.19,269,184,281,184,281l2.9,18.87c3.5-.47,10.27-.71,19.5,1.95,1.17-12.79,2.21-26.31,2.28-34.93,0-2.68-.67-10.71-.67-10.71Z" style="opacity: 0.3; transform-origin: 195.842px 278.98px;" class="animable"></path></g><path d="M208,408.07a12.48,12.48,0,0,1-6.94-6.51l-3.34-6.44.42-3.22s-2.2-2.26-4.53-.82a11.9,11.9,0,0,1-4.73,1.64l.41,3.71c-1.38,1.26-.76,10.46-.22,14.4h1.1a42.78,42.78,0,0,0,.83-7c3.36,9.12,18.65,7.95,18.92,6C210,409.14,209.13,408.54,208,408.07Z" style="fill: rgb(38, 50, 56); transform-origin: 199.189px 400.897px;" id="el9naar6db2ia" class="animable"></path><path d="M218,203.77a63.31,63.31,0,0,1,8.64,7.92c3.77,4.51,9.71,11.19,2.72-10.48l5.54-1.28s8.83,23,3.65,26.31S221,218.56,221,218.56,216.25,214,218,203.77Z" style="fill: rgb(235, 179, 118); transform-origin: 228.896px 213.396px;" id="elhftgkzwguhs" class="animable"></path><path d="M230.74,203.35,229,197.63s-2.82-1.3-3.37-2.13a6.49,6.49,0,0,1-.45-2.78,16.54,16.54,0,0,1,.45-2.26l-2.89-7.24a.56.56,0,0,1,.51-.76h0a.56.56,0,0,1,.46.25l3.82,5.66.4-6.26a.55.55,0,0,1,.54-.52h.36a.55.55,0,0,1,.55.51l.54,6.1s2.84,1.74,3.3,2.71c.56,1.19,0,5.28,0,5.28l1.95,5.69Z" style="fill: rgb(235, 179, 118); transform-origin: 228.937px 192.47px;" id="elydv1kt2g1bn" class="animable"></path><path d="M228.88,201.18s2.59,7.56,2.45,11.68l8.35-.62s-2.31-8.56-4-13.51C235.69,198.73,231.42,199.21,228.88,201.18Z" style="fill: rgb(0, 255, 136); transform-origin: 234.28px 205.795px;" id="el5ehwu7ouhdw" class="animable"></path><g id="el1fhl8cag1fc"><path d="M228.88,201.18s2.59,7.56,2.45,11.68l8.35-.62s-2.31-8.56-4-13.51C235.69,198.73,231.42,199.21,228.88,201.18Z" style="fill: rgb(255, 255, 255); opacity: 0.5; transform-origin: 234.28px 205.795px;" class="animable"></path></g><path d="M228.76,202.07a20.13,20.13,0,0,1,7.49-2.62c1.09-.1,1.1-1.83,0-1.73a22.28,22.28,0,0,0-8.36,2.86c-1,.53-.11,2,.87,1.49Z" style="fill: rgb(38, 50, 56); transform-origin: 232.261px 199.946px;" id="eldq10bu1xjvh" class="animable"></path><path d="M231.07,214.11a30.25,30.25,0,0,1,9.09-.65c1.1.14,1.08-1.59,0-1.73a31.6,31.6,0,0,0-9.54.71c-1.1.2-.63,1.86.45,1.67Z" style="fill: rgb(38, 50, 56); transform-origin: 235.485px 212.88px;" id="elq9s6f06o6n" class="animable"></path><g id="elq7n30tvm89"><g style="opacity: 0.5; transform-origin: 234.214px 205.92px;" class="animable"><path d="M228.76,202.07a20.13,20.13,0,0,1,7.49-2.62c1.09-.1,1.1-1.83,0-1.73a22.28,22.28,0,0,0-8.36,2.86c-1,.53-.11,2,.87,1.49Z" style="fill: rgb(255, 255, 255); transform-origin: 232.261px 199.946px;" id="elbe0ylz30d65" class="animable"></path><path d="M231.07,214.11a30.25,30.25,0,0,1,9.09-.65c1.1.14,1.08-1.59,0-1.73a31.6,31.6,0,0,0-9.54.71c-1.1.2-.63,1.86.45,1.67Z" style="fill: rgb(255, 255, 255); transform-origin: 235.485px 212.88px;" id="elb6ch1ty4yf" class="animable"></path></g></g><path d="M205,165.13s-12.7-1.52-13.65,11.5,4.47,20.11,4.47,20.11A14.68,14.68,0,0,1,195,192a8.83,8.83,0,0,0,8.55,5.74c6.82.12,8.91-2.75,8.91-2.75a7.87,7.87,0,0,1-3.36,4.85,9.69,9.69,0,0,0,5.3-4.85,36.44,36.44,0,0,1-2.49,5.36s8.26-6.15,8.34-20.95C220.38,162.38,205,165.13,205,165.13Z" style="fill: rgb(38, 50, 56); transform-origin: 205.745px 182.658px;" id="elyz6lkbsb9o" class="animable"></path><path d="M197.62,187.13c.79,4.24,1.54,12-1.45,14.79A48.88,48.88,0,0,0,207,208.44c4.74-3.85,2.31-6.39,2.31-6.39-4.7-1.2-4.55-4.67-3.73-8Z" style="fill: rgb(235, 179, 118); transform-origin: 203.051px 197.785px;" id="eljgw35slfli8" class="animable"></path><g id="elpvojtoehzdj"><path d="M198.52,191.2c.25,2.7,4,5,6.64,5.54a13.7,13.7,0,0,1,.43-2.64l-6.77-5.92A11.35,11.35,0,0,0,198.52,191.2Z" style="opacity: 0.2; isolation: isolate; transform-origin: 202.052px 192.46px;" class="animable"></path></g><path d="M196.09,177.51c0,7.08-.21,10.08,3.11,13.93,5,5.81,13.69,4.31,15.85-2.61,1.94-6.24,1.68-16.76-5-20a9.66,9.66,0,0,0-13.94,8.71Z" style="fill: rgb(235, 179, 118); transform-origin: 206.094px 181.431px;" id="elxy4rdlmclc" class="animable"></path><path d="M212,181.29a15.39,15.39,0,0,0,1.8,3.8,2.47,2.47,0,0,1-2.07.26Z" style="fill: rgb(213, 135, 69); transform-origin: 212.765px 183.379px;" id="elgcd22oftl3j" class="animable"></path><path d="M206.59,178a.35.35,0,0,1-.13-.08.27.27,0,0,1,0-.39h0a3.28,3.28,0,0,1,2.88-.93.29.29,0,0,1,.21.34.28.28,0,0,1-.33.21,2.76,2.76,0,0,0-2.38.79A.28.28,0,0,1,206.59,178Z" style="fill: rgb(46, 53, 58); transform-origin: 207.966px 177.281px;" id="elkd7irorzg8o" class="animable"></path><path d="M216.38,178.09a.47.47,0,0,1-.12-.07,2.77,2.77,0,0,0-2.36-.81.28.28,0,0,1-.34-.2h0a.28.28,0,0,1,.22-.33,3.31,3.31,0,0,1,2.88.94.28.28,0,0,1,0,.4.28.28,0,0,1-.29.08Z" style="fill: rgb(46, 53, 58); transform-origin: 215.149px 177.375px;" id="el8es3k256yxm" class="animable"></path><path d="M207.79,180.28c0,.57.23,1.06.61,1.09s.71-.42.74-1-.23-1.05-.6-1.08S207.83,179.7,207.79,180.28Z" style="fill: rgb(46, 53, 58); transform-origin: 208.466px 180.33px;" id="elilt2ba5ckob" class="animable"></path><path d="M213.85,180.72c0,.57.23,1.05.6,1.08s.71-.41.75-1-.23-1.06-.6-1.08S213.88,180.14,213.85,180.72Z" style="fill: rgb(46, 53, 58); transform-origin: 214.527px 180.76px;" id="elh5ihlbh1kp4" class="animable"></path><path d="M214.43,179.75l1.4-.31S215.05,180.47,214.43,179.75Z" style="fill: rgb(46, 53, 58); transform-origin: 215.13px 179.723px;" id="elixdu3f6zz1h" class="animable"></path><path d="M208.37,179.31l1.4-.3S209,180,208.37,179.31Z" style="fill: rgb(46, 53, 58); transform-origin: 209.07px 179.282px;" id="el71bmultho56" class="animable"></path><path d="M210.25,188.24a5.55,5.55,0,0,0,.73.13.14.14,0,0,0,.14-.12h0a.13.13,0,0,0-.12-.14,3.55,3.55,0,0,1-2.72-1.61.12.12,0,0,0-.17-.06.13.13,0,0,0-.06.18A3.66,3.66,0,0,0,210.25,188.24Z" style="fill: rgb(46, 53, 58); transform-origin: 209.577px 187.397px;" id="el3bkei1xehwh" class="animable"></path><path d="M196.57,181.16s1.92,4.83,3.94,3.59-.47-11.14,8.83-13c0,0,1.16,5.46,5.19,6.57,0,0-3.42-3.49-3.45-6.57,0,0,7.66,2.13,5,22.52,0,0,8-20.41-5.32-26.5,0,0-5.76-3-12.58,1.27S193.88,185.45,196.57,181.16Z" style="fill: rgb(38, 50, 56); transform-origin: 206.132px 180.508px;" id="el2d5sx9qb68" class="animable"></path><path d="M196.55,177.78s.39-7.29,9.06-9.09l-1.28,2.13s-4.46,1.1-6.29,9.34Z" style="fill: rgb(0, 255, 136); transform-origin: 201.08px 174.425px;" id="eld20kb1mxqr9" class="animable"></path><g id="elaw36xf2re7"><path d="M196.55,177.78s.39-7.29,9.06-9.09l-1.28,2.13s-4.46,1.1-6.29,9.34Z" style="fill: rgb(255, 255, 255); opacity: 0.5; transform-origin: 201.08px 174.425px;" class="animable"></path></g><path d="M185.15,204.16l6.33,46.46h27.84l3.08-21.69s3.48-3.1-1.91-17.1c-.91-2.36-1-5-2.51-8.06C218,203.77,194.75,196.67,185.15,204.16Z" style="fill: rgb(0, 255, 136); transform-origin: 204.328px 225.673px;" id="eleql32evrqqp" class="animable"></path><path d="M198.87,257.3s-10.8,9.12-9.5,30.58l-5.47,6.33L181.45,291s-4.61-26.3,6.48-34.9Z" style="fill: rgb(0, 255, 136); transform-origin: 189.685px 275.155px;" id="el6l9lmmcgagd" class="animable"></path><g id="elchfyzlb01me"><path d="M198.87,257.3l-10.94-1.16c-4,3.1-5.94,8.48-6.81,14.11l1.82,2.36,8.74-3.47C194.53,261,198.87,257.3,198.87,257.3Z" style="fill: rgb(255, 255, 255); opacity: 0.3; transform-origin: 189.995px 264.375px;" class="animable"></path></g><g id="elxh32tr6dd5"><path d="M198.87,257.3l-10.94-1.16c-7.3,5.66-7.8,19-7.28,27.45l1.71,2.27,6.92-2.77C189.7,265.06,198.87,257.3,198.87,257.3Z" style="fill: rgb(255, 255, 255); opacity: 0.3; transform-origin: 189.686px 271px;" class="animable"></path></g><path d="M220.33,254.75s6.91,10.37,6.91,35.72l-3.45-3.17s.14-17.52-6.63-31.16Z" style="fill: rgb(0, 255, 136); transform-origin: 222.2px 272.61px;" id="el7vy5yuir3nh" class="animable"></path><g id="el0cdeuna5f94k"><path d="M220.33,254.75l-3.17,1.39a57.2,57.2,0,0,1,4.14,11.59l3.85.74C223.12,258.94,220.33,254.75,220.33,254.75Z" style="fill: rgb(255, 255, 255); opacity: 0.3; transform-origin: 221.155px 261.61px;" class="animable"></path></g><g id="elns2o9h90fwd"><path d="M220.33,254.75l-3.17,1.39c4.51,9.07,6,19.85,6.41,26.06l3.47.95C225.9,263.11,220.33,254.75,220.33,254.75Z" style="fill: rgb(255, 255, 255); opacity: 0.3; transform-origin: 222.1px 268.95px;" class="animable"></path></g><path d="M201,258.21a299.2,299.2,0,0,1,3.89,48.24l6.34,6.92,5.9-8.36s2.31-28.32-2-47.71Z" style="fill: rgb(0, 255, 136); transform-origin: 209.374px 285.335px;" id="el6lvv0zw93f5" class="animable"></path><g id="el4s8yb6af78"><path d="M201,258.21a299.2,299.2,0,0,1,3.89,48.24l6.34,6.92,5.9-8.36s2.31-28.32-2-47.71Z" style="fill: rgb(255, 255, 255); opacity: 0.5; transform-origin: 209.374px 285.335px;" class="animable"></path></g><polygon points="210.56 266.85 209.41 304.2 211.53 307.17 213.66 303.24 210.56 266.85" style="fill: rgb(0, 255, 136); transform-origin: 211.535px 287.01px;" id="elzjxihyqf50l" class="animable"></polygon><polygon points="206.84 268.95 205.02 273.38 206.27 277.51 206.84 268.95" style="fill: rgb(0, 255, 136); transform-origin: 205.93px 273.23px;" id="elz8lj69t5ald" class="animable"></polygon><polygon points="212.7 266.85 215 277.51 215.48 271 212.7 266.85" style="fill: rgb(0, 255, 136); transform-origin: 214.09px 272.18px;" id="elgcjmkyo8sr" class="animable"></polygon><path d="M188.64,229.75l2.84,20.87h27.84l3.08-21.69c-8.26,0-13-3.26-13-3.26C204.48,231.29,192.86,230.32,188.64,229.75Z" style="fill: rgb(0, 255, 136); transform-origin: 205.52px 238.145px;" id="el8cxhtjaucn7" class="animable"></path><g id="elpk3b4bt9av"><path d="M188.64,229.75l2.84,20.87h27.84l3.08-21.69c-8.26,0-13-3.26-13-3.26C204.48,231.29,192.86,230.32,188.64,229.75Z" style="opacity: 0.3; transform-origin: 205.52px 238.145px;" class="animable"></path></g><g id="elkih6vlorg6o"><path d="M186.26,212.3l3.52,25.85h0a46.23,46.23,0,0,0-1.14-25.85Z" style="opacity: 0.1; transform-origin: 188.68px 225.225px;" class="animable"></path></g><path d="M201.08,185.68l5.07-1.22s-2.73,2.1-3.09,4.12Z" style="fill: rgb(0, 255, 136); transform-origin: 203.615px 186.52px;" id="el0yc3m7ud5no" class="animable"></path><path d="M215.74,185.84l-1.21-.9a6.2,6.2,0,0,1,1,2C215.61,186.57,215.68,186.21,215.74,185.84Z" style="fill: rgb(0, 255, 136); transform-origin: 215.135px 185.94px;" id="elmfrwydobfc9" class="animable"></path><path d="M191.45,201.41c3.49,1.7,12.42,6.45,17.22,12.54,0,0,3.4-6.72,3.26-11.67C206.39,201.12,198.06,200,191.45,201.41Z" style="fill: rgb(38, 50, 56); transform-origin: 201.692px 207.351px;" id="elw7d1db43nn" class="animable"></path><g id="elppauwdfrjv8"><path d="M191.45,201.41c3.49,1.7,12.42,6.45,17.22,12.54,0,0,3.4-6.72,3.26-11.67C206.39,201.12,198.06,200,191.45,201.41Z" style="fill: rgb(255, 255, 255); opacity: 0.3; transform-origin: 201.692px 207.351px;" class="animable"></path></g><polygon points="206.43 204.75 205.86 208.45 208.02 210.69 209.13 207.34 206.43 204.75" style="fill: rgb(0, 255, 136); transform-origin: 207.495px 207.72px;" id="el3kf4dg2521s" class="animable"></polygon><g id="ely5iwpdfz3kf"><polygon points="206.43 204.75 205.86 208.45 208.02 210.69 209.13 207.34 206.43 204.75" style="fill: rgb(255, 255, 255); opacity: 0.5; transform-origin: 207.495px 207.72px;" class="animable"></polygon></g><polygon points="206.43 204.75 205.86 208.45 208.02 210.69 206.43 204.75" style="fill: rgb(0, 255, 136); transform-origin: 206.94px 207.72px;" id="elcohh72skv8v" class="animable"></polygon><path d="M196.15,199.83a1,1,0,0,0,.58,1.25c2.68,1,10.63,3.75,12.4.66l-1.47-1,.35-1.95a1,1,0,0,0-1-1.17,67.09,67.09,0,0,1-11.18-.89l.72,1.87Z" style="fill: rgb(38, 50, 56); transform-origin: 202.48px 199.947px;" id="elm7f8dprbs7" class="animable"></path><path d="M196.76,184.74s4.09-.09,0-7.86a61.77,61.77,0,0,0-9.38-13.16l.68,3.55,4.75,7.43-3.41-1.86-.29,2.3,4.32,3.38S193.74,186.66,196.76,184.74Z" style="fill: rgb(38, 50, 56); transform-origin: 192.979px 174.377px;" id="elmh0x1lg8tih" class="animable"></path><g id="elfgnudjxm9nm"><path d="M196.76,184.74s4.09-.09,0-7.86a61.77,61.77,0,0,0-9.38-13.16l.68,3.55,4.75,7.43-3.41-1.86-.29,2.3,4.32,3.38S193.74,186.66,196.76,184.74Z" style="fill: rgb(255, 255, 255); opacity: 0.6; transform-origin: 192.979px 174.377px;" class="animable"></path></g><path d="M194.05,183a5.18,5.18,0,0,0,2.28,3.22c1.55,1,2.82-.3,2.81-2,0-1.55-.82-3.91-2.57-4.17a2.34,2.34,0,0,0-2.59,2.05A2.38,2.38,0,0,0,194.05,183Z" style="fill: rgb(235, 179, 118); transform-origin: 196.552px 183.302px;" id="el662vl9n5pi5" class="animable"></path><path d="M185.15,204.16A30.78,30.78,0,0,0,179,219.71c-1.15,9.79-1.92,13.82-5.57,13.83-5.31,0-15.1-3.49-15.1-3.49l-1.92,5.76s16.64,10.12,22.59,7.52c6.15-2.69,8.47-14.27,9.69-20.51A24.49,24.49,0,0,0,185.15,204.16Z" style="fill: rgb(235, 179, 118); transform-origin: 172.821px 223.959px;" id="el71nmgtlksvc" class="animable"></path><path d="M161,231.78l-6.55-3.42s-2.72-6.78-4.61-7.74c-.82-.41-2.91.18-3.6.79-1.06,1-.83,4-.72,5.37a7.61,7.61,0,0,0,2,3.84c1,.85,5,1.62,5,1.62l7.18,4.51Z" style="fill: rgb(235, 179, 118); transform-origin: 153.21px 228.617px;" id="elikygr9iycne" class="animable"></path><path d="M179,211.16l6.15,4s-6.34,13.64-8.55,12.27S179,211.16,179,211.16Z" style="fill: rgb(0, 255, 136); transform-origin: 180.575px 219.343px;" id="elcihgo8pdzdi" class="animable"></path><g id="elw6cqfxa5z4"><path d="M179,211.16l6.15,4s-6.34,13.64-8.55,12.27S179,211.16,179,211.16Z" style="fill: rgb(255, 255, 255); opacity: 0.3; transform-origin: 180.575px 219.343px;" class="animable"></path></g><path d="M189.21,200.73s5.47,14.85,2.24,16.58-14.18-4.75-14.18-4.75A14.36,14.36,0,0,1,189.21,200.73Z" style="fill: rgb(0, 255, 136); transform-origin: 184.87px 209.167px;" id="elhhexs83spmr" class="animable"></path><g id="eldjcn63pvmmo"><path d="M189.21,200.73s5.47,14.85,2.24,16.58-14.18-4.75-14.18-4.75A14.36,14.36,0,0,1,189.21,200.73Z" style="fill: rgb(255, 255, 255); opacity: 0.5; transform-origin: 184.87px 209.167px;" class="animable"></path></g><path d="M157.61,228.69s10.81,4.1,15.27,4.17a15.36,15.36,0,0,1-2.45,10.08s-6.12-1.87-15.55-7.49C154.88,235.45,157.69,231.78,157.61,228.69Z" style="fill: rgb(0, 255, 136); transform-origin: 163.923px 235.815px;" id="el352nw3d805" class="animable"></path><g id="elqhcs3qxepm"><path d="M157.61,228.69s10.81,4.1,15.27,4.17a15.36,15.36,0,0,1-2.45,10.08s-6.12-1.87-15.55-7.49C154.88,235.45,157.69,231.78,157.61,228.69Z" style="fill: rgb(255, 255, 255); opacity: 0.5; transform-origin: 163.923px 235.815px;" class="animable"></path></g><path d="M156.73,228.25c.07,2.49-.64,5.27-2.63,6.88-.87.7.36,1.92,1.22,1.22,2.32-1.87,3.22-5.2,3.14-8.1,0-1.11-1.77-1.11-1.73,0Z" style="fill: rgb(38, 50, 56); transform-origin: 156.134px 231.989px;" id="elansz70pyqwe" class="animable"></path><path d="M172.18,232.77a14.67,14.67,0,0,1-2.37,9.83c-.64.92.85,1.78,1.49.88a16.12,16.12,0,0,0,2.61-10.71c-.11-1.1-1.84-1.11-1.73,0Z" style="fill: rgb(38, 50, 56); transform-origin: 171.83px 237.901px;" id="elsyqpunkdkfi" class="animable"></path><g id="el2gtqk37137a"><g style="opacity: 0.5; transform-origin: 163.905px 235.639px;" class="animable"><path d="M156.73,228.25c.07,2.49-.64,5.27-2.63,6.88-.87.7.36,1.92,1.22,1.22,2.32-1.87,3.22-5.2,3.14-8.1,0-1.11-1.77-1.11-1.73,0Z" style="fill: rgb(255, 255, 255); transform-origin: 156.134px 231.989px;" id="eleulye9xdkea" class="animable"></path><path d="M172.18,232.77a14.67,14.67,0,0,1-2.37,9.83c-.64.92.85,1.78,1.49.88a16.12,16.12,0,0,0,2.61-10.71c-.11-1.1-1.84-1.11-1.73,0Z" style="fill: rgb(255, 255, 255); transform-origin: 171.83px 237.901px;" id="elut9fkf1irks" class="animable"></path></g></g><polygon points="189.95 215.15 186.56 214.52 186.56 210.04 190.31 211.69 189.95 215.15" style="fill: rgb(0, 255, 136); transform-origin: 188.435px 212.595px;" id="elbf99q36xf1t" class="animable"></polygon><g id="elw81xyxvs0j"><polygon points="186.56 210.04 190.31 211.69 189.95 215.15 186.56 210.04" style="fill: rgb(255, 255, 255); opacity: 0.7; transform-origin: 188.435px 212.595px;" class="animable"></polygon></g><g id="elqzh0mzn945s"><rect x="151.73" y="194.26" width="4.2" height="201.04" style="fill: rgb(0, 255, 136); transform-origin: 153.83px 294.78px; transform: rotate(-2.52deg);" class="animable"></rect></g><g id="el1d2gsfvetk7"><rect x="151.73" y="194.26" width="4.2" height="201.04" style="fill: rgb(255, 255, 255); opacity: 0.3; transform-origin: 153.83px 294.78px; transform: rotate(-2.52deg);" class="animable"></rect></g><path d="M153,183.8a12.93,12.93,0,0,1-4.09-25.35c-.36,0-.73,0-1.1,0A16.42,16.42,0,1,0,165,174.2,12.94,12.94,0,0,1,153,183.8Z" style="fill: rgb(38, 50, 56); transform-origin: 148.593px 174.861px;" id="elyvb4klkxl8" class="animable"></path><g id="el71d7stbh58"><path d="M153,183.8a12.93,12.93,0,0,1-4.09-25.35c-.36,0-.73,0-1.1,0A16.42,16.42,0,1,0,165,174.2,12.94,12.94,0,0,1,153,183.8Z" style="fill: rgb(255, 255, 255); opacity: 0.5; transform-origin: 148.593px 174.861px;" class="animable"></path></g><path d="M150.15,189a16.37,16.37,0,0,1-16.41-21.2,16.41,16.41,0,1,0,30.51,11.84A16.41,16.41,0,0,1,150.15,189Z" style="fill: rgb(0, 255, 136); transform-origin: 148.194px 179.541px;" id="elpi6ycqsiq18" class="animable"></path><path d="M160.18,170.54a7.73,7.73,0,1,1-8.06-7.38A7.73,7.73,0,0,1,160.18,170.54Z" style="fill: rgb(0, 255, 136); transform-origin: 152.458px 170.883px;" id="el5jtv7zgd34d" class="animable"></path><g id="elnbwmcwawah"><path d="M160.18,170.54a7.73,7.73,0,1,1-8.06-7.38A7.73,7.73,0,0,1,160.18,170.54Z" style="opacity: 0.3; transform-origin: 152.458px 170.883px;" class="animable"></path></g><g id="ellk9px17h3h"><g style="opacity: 0.7; transform-origin: 157.371px 169.92px;" class="animable"><path d="M156.66,169.43a5.4,5.4,0,0,1,.24,1.26.61.61,0,0,0,1.21-.06,6.6,6.6,0,0,0-.3-1.57.6.6,0,0,0-1.15.37Z" style="fill: rgb(255, 255, 255); transform-origin: 157.371px 169.92px;" id="elnj80j4e7dxb" class="animable"></path></g></g><g id="el8vdj8pbx76j"><g style="opacity: 0.7; transform-origin: 154.295px 166.753px;" class="animable"><path d="M152.26,166.44a4.62,4.62,0,0,1,3.68,1.67c.51.58,1.32-.31.81-.9a5.78,5.78,0,0,0-4.54-2,.61.61,0,0,0,0,1.21Z" style="fill: rgb(255, 255, 255); transform-origin: 154.295px 166.753px;" id="elt1sv59a1sqi" class="animable"></path></g></g><path d="M154.22,176h-.65a2.54,2.54,0,1,0-4.13-1.87c0,.06,0,.12,0,.18a6.71,6.71,0,0,1,1.3-11,7.72,7.72,0,1,0,9.35,8.55A6.73,6.73,0,0,1,154.22,176Z" style="fill: rgb(0, 255, 136); transform-origin: 152.404px 170.936px;" id="elq8vzmngn5b" class="animable"></path><path d="M163.71,404.66a5,5,0,1,1-5.26-4.82A5,5,0,0,1,163.71,404.66Z" style="fill: rgb(0, 255, 136); transform-origin: 158.713px 404.833px;" id="elzv5vfsfmm5h" class="animable"></path><g id="elkt27ahq5dm"><path d="M163.71,404.66a5,5,0,1,1-5.26-4.82A5,5,0,0,1,163.71,404.66Z" style="opacity: 0.3; transform-origin: 158.713px 404.833px;" class="animable"></path></g><path d="M159.83,408.22h-.43a1.62,1.62,0,0,0,.62-1.36,1.66,1.66,0,0,0-3.31.15s0,.08,0,.11a4.38,4.38,0,0,1,.85-7.15,5,5,0,1,0,6.1,5.58A4.39,4.39,0,0,1,159.83,408.22Z" style="fill: rgb(0, 255, 136); transform-origin: 158.686px 404.903px;" id="eluzyc5qiahtf" class="animable"></path><polygon points="145.73 192.48 147.98 217.46 152.87 217.25 152.92 192.16 145.73 192.48" style="fill: rgb(38, 50, 56); transform-origin: 149.325px 204.81px;" id="eln14py654qk" class="animable"></polygon><g id="elgxewlqng65j"><polygon points="145.73 192.48 147.98 217.46 152.87 217.25 152.92 192.16 145.73 192.48" style="fill: rgb(255, 255, 255); opacity: 0.3; transform-origin: 149.325px 204.81px;" class="animable"></polygon></g><polygon points="162.05 399.72 159.8 374.74 154.91 374.95 154.86 400.04 162.05 399.72" style="fill: rgb(38, 50, 56); transform-origin: 158.455px 387.39px;" id="elzscmnci1p3" class="animable"></polygon><g id="el80qpet6waui"><polygon points="162.05 399.72 159.8 374.74 154.91 374.95 154.86 400.04 162.05 399.72" style="fill: rgb(255, 255, 255); opacity: 0.3; transform-origin: 158.455px 387.39px;" class="animable"></polygon></g><g id="elidgiq79lcu8"><rect x="143.99" y="191.25" width="10.66" height="2.15" rx="0.93" style="fill: rgb(0, 255, 136); transform-origin: 149.32px 192.325px; transform: rotate(-2.52deg);" class="animable"></rect></g><g id="elf4hzo8pmz78"><rect x="146.25" y="216.28" width="8.35" height="2.15" rx="0.93" style="fill: rgb(0, 255, 136); transform-origin: 150.425px 217.355px; transform: rotate(-2.52deg);" class="animable"></rect></g><g id="elywkmdqfrzak"><g style="opacity: 0.5; transform-origin: 149.32px 204.815px;" class="animable"><g id="elquel227zsn"><rect x="143.99" y="191.25" width="10.66" height="2.15" rx="0.93" style="fill: rgb(255, 255, 255); transform-origin: 149.32px 192.325px; transform: rotate(-2.52deg);" class="animable"></rect></g><g id="elkkn2dqoaamc"><rect x="146.25" y="216.28" width="8.35" height="2.15" rx="0.93" style="fill: rgb(255, 255, 255); transform-origin: 150.425px 217.355px; transform: rotate(-2.52deg);" class="animable"></rect></g></g></g><g id="ellmfq0687tee"><rect x="153.13" y="398.81" width="10.66" height="2.15" rx="0.93" style="fill: rgb(0, 255, 136); transform-origin: 158.46px 399.885px; transform: rotate(177.48deg);" class="animable"></rect></g><g id="elge0rcldn7p"><rect x="153.18" y="373.77" width="8.35" height="2.15" rx="0.93" style="fill: rgb(0, 255, 136); transform-origin: 157.355px 374.845px; transform: rotate(-182.291deg);" class="animable"></rect></g><g id="el61i1vtruw5h"><rect x="153.13" y="398.81" width="10.66" height="2.15" rx="0.93" style="fill: rgb(255, 255, 255); opacity: 0.5; transform-origin: 158.46px 399.885px; transform: rotate(177.48deg);" class="animable"></rect></g><g id="elf625mslqb77"><rect x="153.18" y="373.77" width="8.35" height="2.15" rx="0.93" style="fill: rgb(255, 255, 255); opacity: 0.5; transform-origin: 157.355px 374.845px; transform: rotate(-182.291deg);" class="animable"></rect></g><path d="M189.89,251.1l-4.74,7.25s17.47-.43,23.95,5.62a21.21,21.21,0,0,1,13.68-6.67l-2-5.74a2.12,2.12,0,0,0-2-1.42H191.67A2.13,2.13,0,0,0,189.89,251.1Z" style="fill: rgb(38, 50, 56); transform-origin: 203.965px 257.055px;" id="elguixmabmk94" class="animable"></path><g id="el730yeyxs96l"><path d="M189.89,251.1l-4.74,7.25s17.47-.43,23.95,5.62a21.21,21.21,0,0,1,13.68-6.67l-2-5.74a2.12,2.12,0,0,0-2-1.42H191.67A2.13,2.13,0,0,0,189.89,251.1Z" style="fill: rgb(255, 255, 255); opacity: 0.3; transform-origin: 203.965px 257.055px;" class="animable"></path></g><polygon points="208.47 253.22 206.27 255.42 206.75 259.46 208.96 261.19 211.07 259.26 210.68 254.75 208.47 253.22" style="fill: rgb(0, 255, 136); transform-origin: 208.67px 257.205px;" id="elascgnw8u9he" class="animable"></polygon><g id="elzi1afykjcnp"><polygon points="208.96 261.19 211.07 259.26 210.68 254.75 208.47 253.22 208.96 261.19" style="fill: rgb(255, 255, 255); opacity: 0.7; transform-origin: 209.77px 257.205px;" class="animable"></polygon></g></g><g id="freepik--character-1--inject-20" class="animable" style="transform-origin: 108.192px 283.78px;"><path d="M87.67,195.05S62.37,276.93,65.55,340.3c0,0,39.49-18.44,85.56-4.61,0,0-23.36-72.15-22.92-140.92Z" style="fill: rgb(38, 50, 56); transform-origin: 108.192px 267.535px;" id="elfgd688a7t8i" class="animable"></path><path d="M137.2,237.23l-5.54,4.18v5.66s3.22-.33,9.12-4.92Z" style="fill: rgb(252, 179, 115); transform-origin: 136.22px 242.15px;" id="el1mciepkq2mu" class="animable"></path><g id="elr7g8f6ndddj"><path d="M137.2,237.23l-5.54,4.18v5.66s3.22-.33,9.12-4.92Z" style="opacity: 0.2; transform-origin: 136.22px 242.15px;" class="animable"></path></g><path d="M125.38,195.28a2.43,2.43,0,0,1,3-1.66,21.08,21.08,0,0,1,10,6.84c5.62,6.77,13,24,12.67,30.82s-15.79,15.12-15.79,15.12l-2.65-6.34s8.51-5.9,9.08-9.93-10.65-19.83-14.91-24.64C125,203.4,123.65,201.33,125.38,195.28Z" style="fill: rgb(0, 255, 136); transform-origin: 137.819px 219.963px;" id="elcvd4fd1w5mk" class="animable"></path><g id="el4qtug9r58p"><path d="M124.67,198.69h4.49a51.09,51.09,0,0,1,5.26,16.88,115.54,115.54,0,0,0-7.59-10.08A7.56,7.56,0,0,1,124.67,198.69Z" style="opacity: 0.1; transform-origin: 129.481px 207.13px;" class="animable"></path></g><path d="M130.63,248a490.73,490.73,0,0,1,8.09,83.33c.53,46.29-4.51,70.47-4.51,70.47h-8.3s-3.36-38.92-2.72-59.13c.06-1.88.15-3.57.29-5a53.69,53.69,0,0,0-.72-15.13h0l-4.7-24.23h0a55.22,55.22,0,0,0-3.4-11.08l-.41-1c-3-7.45-7.31-21.77-4.47-38.2Z" style="fill: rgb(0, 255, 136); transform-origin: 123.806px 324.9px;" id="eljysd2ds0loa" class="animable"></path><g id="elw5z7b0qqw3p"><path d="M114.25,286.24a75.32,75.32,0,0,1-4.82-18.34c1-4.37,2.43-14.31,4.36-10.07,3.58,7.88,3.3,28.83,2.93,35.12a55.55,55.55,0,0,0-2.06-5.71Z" style="opacity: 0.1; transform-origin: 113.179px 274.875px;" class="animable"></path></g><path d="M115.52,248C113,314.33,113,314.13,95.72,401.92l-8.55-.21s1.79-49.2,4.51-69.34c.1-.76.2-1.47.31-2.14A78.23,78.23,0,0,0,92.93,315l0-.44-1.34-33.92a171,171,0,0,1,3-32.62Z" style="fill: rgb(0, 255, 136); transform-origin: 101.345px 324.96px;" id="elgvqcyb0z15k" class="animable"></path><path d="M128.19,194.77c1.36,3.75,2.92,14.53,2.89,39.28,0,5.31.81,17.95.81,17.95H93.16l-5.49-56.95a1.77,1.77,0,0,1,1.77-1.94h36.37A2.52,2.52,0,0,1,128.19,194.77Z" style="fill: rgb(0, 255, 136); transform-origin: 109.776px 222.555px;" id="el7xowbypdwmw" class="animable"></path><path d="M85.22,409.53l1.45-6.62c-.1-6.37,2.76-55.94,2.76-55.94,2.49.61,4.69,1,6.62,1.32l4.07,10,3.33-9.35a17.92,17.92,0,0,0,3.25-.25L96.12,402.94c2.29,2.12,4,3.92,9.92,4.65,1.3.17.75,3.64-2.3,3.61-5.07-.06-4-.58-8.28-.57-3.65,0-6.26.17-9.19.23a.85.85,0,0,1-.23,0A1.08,1.08,0,0,1,85.22,409.53Z" style="fill: rgb(38, 50, 56); transform-origin: 95.9424px 379.085px;" id="el2fcc4ukeo12" class="animable"></path><path d="M125.29,402.91l-1.46,6.62a1.09,1.09,0,0,0,.82,1.3.91.91,0,0,0,.23,0c2.93-.06,5.54-.23,9.19-.23,4.31,0,3.22.51,8.28.57,3.05,0,3.6-3.44,2.31-3.61-5.92-.73-7.64-2.53-9.93-4.65,3.8-21,4.82-53.14,4.82-53.14a17.92,17.92,0,0,1-3.25.25L133,359.4l-4.07-10c-1.94-.29-4.13-.71-6.63-1.32C122.28,348.12,124,387.46,125.29,402.91Z" style="fill: rgb(38, 50, 56); transform-origin: 133.806px 379.625px;" id="eleq65m7ygoe9" class="animable"></path><path d="M131.89,249s-20.17.45-39.33-.24l.41,5.37s20.68,1,39.32,0Z" style="fill: rgb(38, 50, 56); transform-origin: 112.425px 251.667px;" id="elt1d8sccsz6s" class="animable"></path><g id="elools3tx541"><rect x="110.59" y="248.75" width="7.97" height="6.26" rx="1.04" style="fill: rgb(38, 50, 56); transform-origin: 114.575px 251.88px; transform: rotate(180deg);" class="animable"></rect></g><g id="el7ppu7ry7bc"><rect x="110.59" y="248.75" width="7.97" height="6.26" rx="1.04" style="fill: rgb(255, 255, 255); opacity: 0.7; transform-origin: 114.575px 251.88px; transform: rotate(180deg);" class="animable"></rect></g><g id="el2v9inknm4t9"><rect x="111.48" y="249.64" width="6.18" height="4.48" rx="1.04" style="opacity: 0.3; transform-origin: 114.57px 251.88px; transform: rotate(180deg);" class="animable"></rect></g><path d="M127.41,248.36h-7.92s-.64,10.15,1.73,11.09c1.89.74,6.19.65,6.84-1.51C128.58,256.2,127.41,248.36,127.41,248.36Z" style="fill: rgb(38, 50, 56); transform-origin: 123.802px 254.114px;" id="el9m497lpqe89" class="animable"></path><g id="elt0w9h7pluk8"><path d="M127.41,248.36h-7.92s-.64,10.15,1.73,11.09c1.89.74,6.19.65,6.84-1.51C128.58,256.2,127.41,248.36,127.41,248.36Z" style="fill: rgb(255, 255, 255); opacity: 0.7; transform-origin: 123.802px 254.114px;" class="animable"></path></g><g id="el167j77ol3n1"><path d="M119.49,248.36h1.15a10.33,10.33,0,0,1,1.88,5.92c.13,4,.2,5.58-1,5.28l-.32-.11C118.85,258.51,119.49,248.36,119.49,248.36Z" style="opacity: 0.3; transform-origin: 120.999px 253.978px;" class="animable"></path></g><path d="M119.49,248.36a3.19,3.19,0,0,1,1.62,2.11,1.42,1.42,0,0,0,1.36,1h4.23a1.44,1.44,0,0,0,1.32-2,4.64,4.64,0,0,0-.61-1.11Z" style="fill: rgb(38, 50, 56); transform-origin: 123.812px 249.915px;" id="elgdeioq7v76j" class="animable"></path><g id="elovy6smeg4e"><path d="M119.49,248.36a3.19,3.19,0,0,1,1.62,2.11,1.42,1.42,0,0,0,1.36,1h4.23a1.44,1.44,0,0,0,1.32-2,4.64,4.64,0,0,0-.61-1.11Z" style="fill: rgb(255, 255, 255); opacity: 0.2; transform-origin: 123.812px 249.915px;" class="animable"></path></g><polygon points="125.19 253.33 126.7 253.33 126.38 250.31 124.86 250.31 125.19 253.33" style="fill: rgb(38, 50, 56); transform-origin: 125.78px 251.82px;" id="eln210cttgmjb" class="animable"></polygon><g id="elsg4hrfn008"><polygon points="125.19 253.33 126.7 253.33 126.38 250.31 124.86 250.31 125.19 253.33" style="fill: rgb(255, 255, 255); opacity: 0.9; transform-origin: 125.78px 251.82px;" class="animable"></polygon></g><path d="M99.85,248.36h7.92s.65,10.15-1.73,11.09c-1.89.74-6.19.65-6.84-1.51C98.68,256.2,99.85,248.36,99.85,248.36Z" style="fill: rgb(38, 50, 56); transform-origin: 103.459px 254.114px;" id="elhii8g1tbv4p" class="animable"></path><g id="el1c8b8zvwzo9"><path d="M99.85,248.36h7.92s.65,10.15-1.73,11.09c-1.89.74-6.19.65-6.84-1.51C98.68,256.2,99.85,248.36,99.85,248.36Z" style="fill: rgb(255, 255, 255); opacity: 0.7; transform-origin: 103.459px 254.114px;" class="animable"></path></g><g id="elftihvmuljrw"><path d="M107.77,248.36h-1.15a10.33,10.33,0,0,0-1.88,5.92c-.13,4-.2,5.58,1,5.28l.32-.11C108.42,258.51,107.77,248.36,107.77,248.36Z" style="opacity: 0.3; transform-origin: 106.262px 253.978px;" class="animable"></path></g><path d="M107.77,248.36a3.19,3.19,0,0,0-1.62,2.11,1.4,1.4,0,0,1-1.36,1h-4.23a1.44,1.44,0,0,1-1.32-2,4.64,4.64,0,0,1,.61-1.11Z" style="fill: rgb(38, 50, 56); transform-origin: 103.448px 249.915px;" id="elvm70unw7mrl" class="animable"></path><g id="el2eapuf8xrpy"><path d="M107.77,248.36a3.19,3.19,0,0,0-1.62,2.11,1.4,1.4,0,0,1-1.36,1h-4.23a1.44,1.44,0,0,1-1.32-2,4.64,4.64,0,0,1,.61-1.11Z" style="fill: rgb(255, 255, 255); opacity: 0.2; transform-origin: 103.448px 249.915px;" class="animable"></path></g><polygon points="102.07 253.33 100.56 253.33 100.89 250.31 102.4 250.31 102.07 253.33" style="fill: rgb(38, 50, 56); transform-origin: 101.48px 251.82px;" id="elw2qnc0c44p8" class="animable"></polygon><g id="elrliloug3pxn"><polygon points="102.07 253.33 100.56 253.33 100.89 250.31 102.4 250.31 102.07 253.33" style="fill: rgb(255, 255, 255); opacity: 0.9; transform-origin: 101.48px 251.82px;" class="animable"></polygon></g><path d="M90.2,248.36h7.92s.65,10.15-1.73,11.09c-1.89.74-6.19.65-6.84-1.51C89,256.2,90.2,248.36,90.2,248.36Z" style="fill: rgb(38, 50, 56); transform-origin: 93.8034px 254.114px;" id="elw201zmmi49j" class="animable"></path><g id="eldhzn2uwx1ui"><path d="M90.2,248.36h7.92s.65,10.15-1.73,11.09c-1.89.74-6.19.65-6.84-1.51C89,256.2,90.2,248.36,90.2,248.36Z" style="fill: rgb(255, 255, 255); opacity: 0.7; transform-origin: 93.8034px 254.114px;" class="animable"></path></g><g id="eloyhhyb93bie"><path d="M98.12,248.36H97a10.33,10.33,0,0,0-1.88,5.92c-.13,4-.2,5.58,1,5.28l.31-.11C98.77,258.51,98.12,248.36,98.12,248.36Z" style="opacity: 0.3; transform-origin: 96.6272px 253.978px;" class="animable"></path></g><path d="M98.12,248.36a3.19,3.19,0,0,0-1.62,2.11,1.4,1.4,0,0,1-1.36,1H90.91a1.44,1.44,0,0,1-1.32-2,4.64,4.64,0,0,1,.61-1.11Z" style="fill: rgb(38, 50, 56); transform-origin: 93.7983px 249.915px;" id="elku3ry1bxkx" class="animable"></path><g id="elxumqobnj68g"><path d="M98.12,248.36a3.19,3.19,0,0,0-1.62,2.11,1.4,1.4,0,0,1-1.36,1H90.91a1.44,1.44,0,0,1-1.32-2,4.64,4.64,0,0,1,.61-1.11Z" style="fill: rgb(255, 255, 255); opacity: 0.2; transform-origin: 93.7983px 249.915px;" class="animable"></path></g><polygon points="92.42 253.33 90.91 253.33 91.24 250.31 92.75 250.31 92.42 253.33" style="fill: rgb(38, 50, 56); transform-origin: 91.83px 251.82px;" id="eles57273w4mj" class="animable"></polygon><g id="eldbpvnvb4mz7"><polygon points="92.42 253.33 90.91 253.33 91.24 250.31 92.75 250.31 92.42 253.33" style="fill: rgb(255, 255, 255); opacity: 0.9; transform-origin: 91.83px 251.82px;" class="animable"></polygon></g><path d="M136.49,248.36h-7.92s-.65,10.15,1.72,11.09c1.89.74,6.2.65,6.85-1.51C137.66,256.2,136.49,248.36,136.49,248.36Z" style="fill: rgb(38, 50, 56); transform-origin: 132.881px 254.114px;" id="el2u8b6n5orps" class="animable"></path><g id="elfnm6olky7zs"><path d="M136.49,248.36h-7.92s-.65,10.15,1.72,11.09c1.89.74,6.2.65,6.85-1.51C137.66,256.2,136.49,248.36,136.49,248.36Z" style="fill: rgb(255, 255, 255); opacity: 0.7; transform-origin: 132.881px 254.114px;" class="animable"></path></g><g id="elm33de2qnyz9"><path d="M128.57,248.36h1.14a10.18,10.18,0,0,1,1.88,5.92c.13,4,.2,5.58-1,5.28l-.32-.11C127.92,258.51,128.57,248.36,128.57,248.36Z" style="opacity: 0.3; transform-origin: 130.073px 253.978px;" class="animable"></path></g><path d="M128.57,248.36a3.22,3.22,0,0,1,1.62,2.11,1.4,1.4,0,0,0,1.36,1h4.22a1.45,1.45,0,0,0,1.33-2,5,5,0,0,0-.61-1.11Z" style="fill: rgb(38, 50, 56); transform-origin: 132.889px 249.915px;" id="elsypzfbrq7vs" class="animable"></path><g id="elho9g2tevkwt"><path d="M128.57,248.36a3.22,3.22,0,0,1,1.62,2.11,1.4,1.4,0,0,0,1.36,1h4.22a1.45,1.45,0,0,0,1.33-2,5,5,0,0,0-.61-1.11Z" style="fill: rgb(255, 255, 255); opacity: 0.2; transform-origin: 132.889px 249.915px;" class="animable"></path></g><polygon points="134.26 253.33 135.77 253.33 135.45 250.31 133.94 250.31 134.26 253.33" style="fill: rgb(38, 50, 56); transform-origin: 134.855px 251.82px;" id="eldry7b3adtfh" class="animable"></polygon><g id="el6c2373v8m5"><polygon points="134.26 253.33 135.77 253.33 135.45 250.31 133.94 250.31 134.26 253.33" style="fill: rgb(255, 255, 255); opacity: 0.9; transform-origin: 134.855px 251.82px;" class="animable"></polygon></g><path d="M132.42,241.37a2.86,2.86,0,0,0-.47-1c-.79-1-2.82-2.21-4.46-1.19-2.09,1.3-1.86,5.76-.79,7.7s2.32-.28,4.43.58C132.91,248.21,132.86,243.05,132.42,241.37Z" style="fill: rgb(252, 179, 115); transform-origin: 129.289px 243.248px;" id="eluykipmfdbn8" class="animable"></path><g id="el86budyfetm"><path d="M90.91,199.78a54.73,54.73,0,0,1-1,18.82l-1.81-18.82Z" style="opacity: 0.1; transform-origin: 89.7016px 209.19px;" class="animable"></path></g><path d="M82.94,234.54l8.2,5.82s1.71-2.78,2.69-2.91c1.36-.18,4.07,1.66,4.64,2.91s.23,4.85-.93,5.71c-.61.46-3-.39-3-.39l-2.34.39L79.6,240Z" style="fill: rgb(252, 179, 115); transform-origin: 89.1703px 240.373px;" id="eldg568c774e" class="animable"></path><path d="M89.44,193.11s-6.74.58-12.36,7.35S65.27,222.21,65.56,229,87.11,244.1,87.11,244.1l2.65-5.19s-13.11-9.36-13.69-13.39,8.36-14.07,12.61-18.87C90.74,204.32,92.15,200.87,89.44,193.11Z" style="fill: rgb(0, 255, 136); transform-origin: 78.2435px 218.605px;" id="elh7rxd9wh0jt" class="animable"></path><path d="M109.49,193.13c3.47.39,12.11-2.24,5.65,12.87C115.14,206,89.35,190.85,109.49,193.13Z" style="fill: rgb(252, 179, 115); transform-origin: 109.637px 199.448px;" id="el2d2fl4wjj3p" class="animable"></path><path d="M106.63,178a53.64,53.64,0,0,1-3.3,16.67s6.72,5.49,11.55,1.06a10.76,10.76,0,0,1-.14-8C116.4,183.32,106.63,178,106.63,178Z" style="fill: rgb(252, 179, 115); transform-origin: 109.13px 187.729px;" id="el68j89hdciko" class="animable"></path><g id="el6482ixngnos"><path d="M106.65,181.75h2.73l5.51,4.56a3,3,0,0,1-.15,1.38,10.73,10.73,0,0,0-.66,4.64C106.26,191.36,106.65,181.75,106.65,181.75Z" style="opacity: 0.1; transform-origin: 110.78px 187.04px;" class="animable"></path></g><path d="M119.13,164.73c4.32,1.26,5,7.46,2,11C118,169.32,119.13,164.73,119.13,164.73Z" style="fill: rgb(38, 50, 56); transform-origin: 120.949px 170.23px;" id="elrpubq5smgha" class="animable"></path><path d="M103.68,173.57c.5,6.61.45,10.49,3.83,13.94a8.61,8.61,0,0,0,14.66-4.2c1.34-5.9.31-15.72-6.19-18.48a8.72,8.72,0,0,0-12.3,8.74Z" style="fill: rgb(252, 179, 115); transform-origin: 113.163px 177.11px;" id="elx6aej3djlf" class="animable"></path><path d="M118.09,176.37c.18,1.45,1.42,2.75,2.81,3.88a2,2,0,0,1-1.51,1.06Z" style="fill: rgb(236, 135, 62); transform-origin: 119.495px 178.84px;" id="eltpk0srasj4" class="animable"></path><path d="M111.67,173l-.14,0a.31.31,0,0,1,0-.44h0a3.06,3.06,0,0,1,2.76-.82.3.3,0,0,1,.22.38h0a.31.31,0,0,1-.38.22h0a2.44,2.44,0,0,0-2.15.63A.31.31,0,0,1,111.67,173Z" style="fill: rgb(38, 50, 56); transform-origin: 112.981px 172.353px;" id="el5u31i0i43qe" class="animable"></path><path d="M122.24,172.94a.29.29,0,0,1-.28-.07,2.62,2.62,0,0,0-2.22-.73.32.32,0,0,1-.33-.3.3.3,0,0,1,.2-.31h0a3.23,3.23,0,0,1,2.77.88.32.32,0,0,1,0,.44h0A.24.24,0,0,1,122.24,172.94Z" style="fill: rgb(38, 50, 56); transform-origin: 120.938px 172.22px;" id="elmvce6aorhg" class="animable"></path><path d="M118,183.57a5.5,5.5,0,0,0,.91-.08.18.18,0,0,0,.16-.2h0a.19.19,0,0,0-.22-.14,4.92,4.92,0,0,1-4.27-1.24.18.18,0,1,0-.27.25A5.07,5.07,0,0,0,118,183.57Z" style="fill: rgb(38, 50, 56); transform-origin: 116.666px 182.712px;" id="elz5x84h9371r" class="animable"></path><path d="M100.39,166.34s-5.85,3.87,4.06,18a.65.65,0,0,0,1.19-.41l-.32-5s3.93-.05,2.08-9.53Z" style="fill: rgb(38, 50, 56); transform-origin: 103.285px 175.486px;" id="ely40td9pdgx" class="animable"></path><path d="M108.35,169.78c4.87,1.9,14.14-1.6,15.73-6.19,1.73-5-3.77-7.18-8.18-7.23a2.07,2.07,0,0,0-2,2.31.85.85,0,0,1-.15.55,17.29,17.29,0,0,0-3.35-1.12,3.78,3.78,0,0,0-4,2c-.34.57-1.46,1-4,.92-5.25-.19-4.44,4.89-1.89,5.55C102.59,167.1,106.39,169,108.35,169.78Z" style="fill: rgb(38, 50, 56); transform-origin: 111.461px 163.334px;" id="el9qcuzk6zzcv" class="animable"></path><polygon points="122.71 174.16 120.77 172.23 117.47 173.73 113.16 172.59 109.13 175.47 99.94 177.11 100.95 179.22 109.77 177.96 113.84 179.22 118.16 176.71 121.87 178.37 122.96 176.71 122.71 174.16" style="fill: rgb(0, 255, 136); transform-origin: 111.45px 175.725px;" id="elapqj1eqv6b" class="animable"></polygon><path d="M101.25,179.09a5.89,5.89,0,0,0,2.71,3.33c1.7.93,2.89-.51,2.7-2.36-.17-1.67-1.26-4.16-3.1-4.33S100.71,177.34,101.25,179.09Z" style="fill: rgb(252, 179, 115); transform-origin: 103.892px 179.215px;" id="elek9zmyez6h8" class="animable"></path><path d="M113.73,176c.06.54.4.94.74.88s.58-.48.53-1-.4-1-.75-.88S113.67,175.47,113.73,176Z" style="fill: rgb(38, 50, 56); transform-origin: 114.364px 175.934px;" id="eldkkaem8tn8t" class="animable"></path><path d="M119.78,175.52c.06.53.39.93.74.88s.58-.49.53-1-.4-.93-.75-.88S119.72,175,119.78,175.52Z" style="fill: rgb(38, 50, 56); transform-origin: 120.414px 175.46px;" id="elw274aw22ag" class="animable"></path><path d="M116,192.89c1,2.39,6.29,9.54,6.29,9.54l10.94-7.66a8,8,0,0,0-5.18-1.88s-3.46-1.59-6.14,0C121.94,192.88,115,190.32,116,192.89Z" style="fill: rgb(38, 50, 56); transform-origin: 124.566px 197.088px;" id="ela2o6vqq43zp" class="animable"></path><path d="M124.41,202.43a2.09,2.09,0,1,1-2.09-2.09A2.1,2.1,0,0,1,124.41,202.43Z" style="fill: rgb(0, 255, 136); transform-origin: 122.32px 202.43px;" id="el3u4cfzr9o9h" class="animable"></path><g id="el7f9oyficgnv"><path d="M124.41,202.43a2.09,2.09,0,1,1-2.09-2.09A2.1,2.1,0,0,1,124.41,202.43Z" style="fill: rgb(255, 255, 255); opacity: 0.8; transform-origin: 122.32px 202.43px;" class="animable"></path></g><g id="el10n5e6nj6sla"><path d="M127.63,194.12l-3.75,4.57S124.82,193.19,127.63,194.12Z" style="opacity: 0.8; transform-origin: 125.755px 196.352px;" class="animable"></path></g><g id="elqfpsuvh3s"><path d="M121.72,194l.6,4.35S123.16,194.41,121.72,194Z" style="opacity: 0.8; transform-origin: 122.142px 196.175px;" class="animable"></path></g><path d="M101.8,192.89c-1,2.39-4,9.54-4,9.54l-14.4-7.66s3.55-2.09,6.33-1.88c0,0,3.46-1.59,6.15,0C95.9,192.88,102.88,190.32,101.8,192.89Z" style="fill: rgb(38, 50, 56); transform-origin: 92.6568px 197.088px;" id="elutack3c7il" class="animable"></path><path d="M99.56,202.43a2.09,2.09,0,1,1-2.08-2.09A2.09,2.09,0,0,1,99.56,202.43Z" style="fill: rgb(0, 255, 136); transform-origin: 97.47px 202.43px;" id="el8c8lqmdqq2p" class="animable"></path><g id="el6te92bxb70t"><path d="M99.56,202.43a2.09,2.09,0,1,1-2.08-2.09A2.09,2.09,0,0,1,99.56,202.43Z" style="fill: rgb(255, 255, 255); opacity: 0.8; transform-origin: 97.47px 202.43px;" class="animable"></path></g><path d="M96,194s.72,2.88,0,3.4-5.76-3.08-5.76-3.08S94.87,200.1,97,199,96,194,96,194Z" id="elazub2f4xeyi" class="animable" style="transform-origin: 93.9912px 196.57px;"></path><path d="M103.45,215.87c0,2.86,4.37,5.18,9.76,5.18s9.75-2.32,9.75-5.18-4.37-5.18-9.75-5.18S103.45,213,103.45,215.87Z" style="fill: rgb(255, 255, 255); transform-origin: 113.205px 215.87px;" id="elema9b0a8bc" class="animable"></path></g><g id="freepik--character-3--inject-20" class="animable" style="transform-origin: 279.91px 279.835px;"><path d="M296.35,248.43s6.9,53.61,7.68,71.7c.86,19.78-4.58,80.9-4.58,80.9l-7.92.37s-7.4-64.74-5.15-77.48l-6.91-41.08S267,265.46,267.7,250.71Z" style="fill: rgb(0, 255, 136); transform-origin: 285.897px 324.915px;" id="elc26td3eukyi" class="animable"></path><g id="elwg5ba3mb17r"><path d="M276.43,278.08c-.07-4.94-.05-8.55-.05-8.55l2.89-9.08,3.41-3.56s3.45,28.95-.27,43.45l-2.94-17.5S278.17,281,276.43,278.08Z" style="opacity: 0.1; transform-origin: 280.257px 278.615px;" class="animable"></path></g><path d="M284.73,249.92s-5.58,53.74-8.21,71.66c-2.88,19.58-15,78.33-15,78.33H253.5s-.77-66.05,3.84-78.15l-.2-41.86a53,53,0,0,1-.95-27Z" style="fill: rgb(0, 255, 136); transform-origin: 269.091px 324.915px;" id="elc85o64gd15" class="animable"></path><polygon points="290.46 183.7 283.26 182.07 282.4 186.36 290.46 190.8 291.56 185.28 290.46 183.7" style="fill: rgb(0, 255, 136); transform-origin: 286.98px 186.435px;" id="eld96d373jh6u" class="animable"></polygon><g id="el9g5f9lvgajr"><polygon points="290.46 183.7 283.26 182.07 282.4 186.36 290.46 190.8 291.56 185.28 290.46 183.7" style="fill: rgb(255, 255, 255); opacity: 0.5; transform-origin: 286.98px 186.435px;" class="animable"></polygon></g><path d="M296.51,187s-3.27-7.2-11.43-3.26Z" style="fill: rgb(0, 255, 136); transform-origin: 290.795px 184.781px;" id="eler3a7b1rw5n" class="animable"></path><g id="elwxkkj9920ki"><path d="M296.51,187s-3.27-7.2-11.43-3.26Z" style="fill: rgb(255, 255, 255); opacity: 0.8; transform-origin: 290.795px 184.781px;" class="animable"></path></g><path d="M316.86,172.85l1.06-4.22s-3-6.72-2-8.74c.68-1.42,4.18-3.32,5.66-2.78,1.72.62,3,4.88,3,6.72,0,1.28-2,4.7-2,4.7l-1.73,6.72Z" style="fill: rgb(206, 122, 99); transform-origin: 320.148px 166.133px;" id="elkperln9cbbi" class="animable"></path><path d="M279.81,184.76a2.37,2.37,0,0,1,2.32-1.82c2.26,0,6.71.55,13.71,3.21C310.72,191.8,316.57,170,316.57,170l5.48,3.17s-5.19,22.43-11.67,25-20-.77-26.78-3.65C278.73,192.43,279.17,187.41,279.81,184.76Z" style="fill: rgb(0, 255, 136); transform-origin: 300.737px 184.544px;" id="el1d4xb98p9vk" class="animable"></path><path d="M300.74,186.36s-2.42,8.28-1.12,12.7a44.54,44.54,0,0,1-9.93-1.91s-2.11-3.75.77-13.45C290.46,183.7,298.63,186.52,300.74,186.36Z" style="fill: rgb(0, 255, 136); transform-origin: 294.842px 191.38px;" id="elr5skjg9s8i" class="animable"></path><g id="ely5iguy2rj8"><path d="M300.74,186.36s-2.42,8.28-1.12,12.7a44.54,44.54,0,0,1-9.93-1.91s-2.11-3.75.77-13.45C290.46,183.7,298.63,186.52,300.74,186.36Z" style="fill: rgb(255, 255, 255); opacity: 0.5; transform-origin: 294.842px 191.38px;" class="animable"></path></g><g id="el8veqweq5yl6"><path d="M299.27,196.82,289,194.49c0-.39-.08-.82-.09-1.3l10.3,1.94C299.23,195.71,299.24,196.27,299.27,196.82Z" style="fill: rgb(255, 255, 255); opacity: 0.7; transform-origin: 294.09px 195.005px;" class="animable"></path></g><path d="M322.05,177.51a21.87,21.87,0,0,1-6.95-3.37s-4.72,8.26-7.89,9.56c0,0,5.33,6.19,10.37,6.34Z" style="fill: rgb(0, 255, 136); transform-origin: 314.63px 182.09px;" id="elum1g3kt2lpf" class="animable"></path><g id="el7xnkx9pnuw5"><path d="M322.05,177.51a21.87,21.87,0,0,1-6.95-3.37s-4.72,8.26-7.89,9.56c0,0,5.33,6.19,10.37,6.34Z" style="fill: rgb(255, 255, 255); opacity: 0.5; transform-origin: 314.63px 182.09px;" class="animable"></path></g><g id="elq4i6fjbf2h"><path d="M319.45,176.6,313.87,189a13.86,13.86,0,0,1-1.5-.86L318,176C318.53,176.2,319,176.41,319.45,176.6Z" style="fill: rgb(255, 255, 255); opacity: 0.7; transform-origin: 315.91px 182.5px;" class="animable"></path></g><path d="M296.13,247.26s7.87-9.22,0-27.85C291.74,209,285,190.7,283,184.92a2.83,2.83,0,0,0-2.62-1.87c-5.18-.1-19.67.35-32.4,7.44a2.8,2.8,0,0,0-1.42,2.66c.52,7.66,2.94,38.4,9.29,57.95Z" style="fill: rgb(0, 255, 136); transform-origin: 273.09px 217.07px;" id="elw1p3o2uxx3" class="animable"></path><g id="elztldd42ymaa"><path d="M296.13,247.26s7.87-9.22,0-27.85C291.74,209,285,190.7,283,184.92a2.83,2.83,0,0,0-2.62-1.87c-5.18-.1-19.67.35-32.4,7.44a2.8,2.8,0,0,0-1.42,2.66c.52,7.66,2.94,38.4,9.29,57.95Z" style="fill: rgb(255, 255, 255); opacity: 0.2; transform-origin: 273.09px 217.07px;" class="animable"></path></g><g id="elger8ep4jccr"><path d="M249.28,220c-1.67-12-2.49-22.72-2.77-26.82a2.8,2.8,0,0,1,1.42-2.66c12.73-7.09,27.22-7.54,32.4-7.44a2.83,2.83,0,0,1,2.62,1.87c1.44,4,5.06,13.91,8.61,23.09C287.48,206.61,274.23,204.33,249.28,220Z" style="fill: rgb(255, 255, 255); opacity: 0.3; transform-origin: 269.031px 201.535px;" class="animable"></path></g><g id="el0eo1qwworygc"><path d="M247.93,190.49c12.73-7.09,27.22-7.54,32.4-7.44a2.83,2.83,0,0,1,2.62,1.87c1,2.76,3.05,8.39,5.4,14.65v.78a3.17,3.17,0,0,1-3.24,3.17,34.9,34.9,0,0,0-5.14.31,4.47,4.47,0,0,1-4.21-1.82l-2.1-2.9v2.68a4.47,4.47,0,0,1-3.06,4.26,81,81,0,0,0-11,4.59,3.19,3.19,0,0,1-3.73-.67l-8.79-9.4c-.28-3.26-.48-5.83-.58-7.42A2.8,2.8,0,0,1,247.93,190.49Z" style="fill: rgb(255, 255, 255); opacity: 0.5; transform-origin: 267.421px 197.004px;" class="animable"></path></g><g id="elj3v4uyyfffh"><g style="opacity: 0.3; transform-origin: 279.799px 228.503px;" class="animable"><path d="M291.56,208c-.26-.68,3,7.64,4.57,11.4,7.87,18.63,0,27.85,0,27.85L267.38,250c-.52-15.55-5.86-31.66-7.41-36C278.09,205,288.11,206.82,291.56,208Z" style="fill: rgb(255, 255, 255); transform-origin: 279.799px 228.503px;" id="el7m5098u5l5d" class="animable"></path></g></g><g id="el5s6e0nu117s"><path d="M260,214c18.12-8.94,28.14-7.14,31.59-6-.17-.45,1.17,3,2.57,6.5l-6.79,1.41-1.51,3.38a4.75,4.75,0,0,1-6.94,2l-4.27-2.79-12.36,2.55C261.3,217.83,260.45,215.32,260,214Z" style="fill: rgb(255, 255, 255); opacity: 0.3; transform-origin: 277.08px 214.558px;" class="animable"></path></g><g id="elgsjnkaalsle"><path d="M260,214c18.12-8.94,28.14-7.14,31.59-6-.26-.68,3,7.64,4.57,11.4a49.55,49.55,0,0,1,2.44,7.3L290.18,228l-1.62,3a4.75,4.75,0,0,1-7.07,1.52L278,229.8l-13,1.95A148,148,0,0,0,260,214Z" style="fill: rgb(255, 255, 255); opacity: 0.3; transform-origin: 279.3px 220.269px;" class="animable"></path></g><g id="el7pendij5rc3"><path d="M260,214c18.12-8.94,28.14-7.14,31.59-6-.26-.68,3,7.64,4.57,11.4,3.78,9,3.92,15.74,3.05,20.36l-8.25.74-1.14,1.9a4.76,4.76,0,0,1-7.14,1.17l-2.48-2.1-13.36,1.19A142.49,142.49,0,0,0,260,214Z" style="fill: rgb(255, 255, 255); opacity: 0.3; transform-origin: 279.825px 225.866px;" class="animable"></path></g><g id="el3kuzfflius9"><rect x="287.35" y="215.96" width="9.82" height="2.33" style="fill: rgb(38, 50, 56); transform-origin: 292.26px 217.125px; transform: rotate(165.8deg);" class="animable"></rect></g><g id="elj6vn0aspk"><rect x="283.35" y="216" width="13.27" height="3.87" style="fill: rgb(38, 50, 56); transform-origin: 289.985px 217.935px; transform: rotate(165.8deg);" class="animable"></rect></g><g id="eli5db27o7mpe"><rect x="283.35" y="216" width="13.27" height="3.87" style="fill: rgb(255, 255, 255); opacity: 0.2; transform-origin: 289.985px 217.935px; transform: rotate(165.8deg);" class="animable"></rect></g><path d="M270.46,225.37l1.39-.35,0,6.57-.1,1.75a.93.93,0,0,0,1.16,1l14-3.54a2,2,0,0,0,1.5-1.67l.24-1.75-1.58.4,1.59-7,6.93-1.75-.1-.42a4.27,4.27,0,0,0-5.19-3.09L270,220.65a1.82,1.82,0,0,0-1.32,2.2l.44,1.72A1.1,1.1,0,0,0,270.46,225.37Zm6.14-1.55,9.74-2.46-1.67,5.51a2.94,2.94,0,0,1-2.11,2l-5.45,1.38Z" style="fill: rgb(38, 50, 56); transform-origin: 282.109px 224.88px;" id="elc19ea5mobd" class="animable"></path><g id="el2szqagw3buu"><path d="M270.46,225.37l1.39-.35,0,6.57-.1,1.75a.93.93,0,0,0,1.16,1l14-3.54a2,2,0,0,0,1.5-1.67l.24-1.75-1.58.4,1.59-7,6.93-1.75-.1-.42a4.27,4.27,0,0,0-5.19-3.09L270,220.65a1.82,1.82,0,0,0-1.32,2.2l.44,1.72A1.1,1.1,0,0,0,270.46,225.37Zm6.14-1.55,9.74-2.46-1.67,5.51a2.94,2.94,0,0,1-2.11,2l-5.45,1.38Z" style="fill: rgb(255, 255, 255); opacity: 0.3; transform-origin: 282.109px 224.88px;" class="animable"></path></g><g id="el99hl2q00478"><path d="M270.42,217.48H288.1a0,0,0,0,1,0,0v.32a2.09,2.09,0,0,1-2.09,2.09H272.52a2.09,2.09,0,0,1-2.09-2.09v-.32A0,0,0,0,1,270.42,217.48Z" style="fill: rgb(38, 50, 56); transform-origin: 279.26px 218.685px; transform: rotate(165.81deg);" class="animable"></path></g><g id="el8z6evug42ta"><path d="M270.42,217.48H288.1a0,0,0,0,1,0,0v.32a2.09,2.09,0,0,1-2.09,2.09H272.52a2.09,2.09,0,0,1-2.09-2.09v-.32A0,0,0,0,1,270.42,217.48Z" style="fill: rgb(255, 255, 255); opacity: 0.7; transform-origin: 279.26px 218.685px; transform: rotate(165.81deg);" class="animable"></path></g><path d="M272,222.49a1.93,1.93,0,1,0,1.4-2.35A1.94,1.94,0,0,0,272,222.49Z" style="fill: rgb(0, 255, 136); transform-origin: 273.871px 222.012px;" id="elrd34h5s19eh" class="animable"></path><g id="elokijzj1rmo"><path d="M272.93,222.25a1,1,0,1,0,.7-1.18A1,1,0,0,0,272.93,222.25Z" style="fill: rgb(255, 255, 255); opacity: 0.8; transform-origin: 273.906px 222.031px;" class="animable"></path></g><g id="el40t25nbmiuq"><g style="opacity: 0.1; transform-origin: 280.22px 226.2px;" class="animable"><polygon points="288.61 220.96 288.35 222.11 285.93 222.72 286.28 221.55 288.61 220.96" id="elrs9ztss5xh" class="animable" style="transform-origin: 287.27px 221.84px;"></polygon><polygon points="271.85 225.2 276.62 223.99 276.7 225.06 271.85 226.28 271.85 225.2" id="elsdw7586zke" class="animable" style="transform-origin: 274.275px 225.135px;"></polygon><path d="M284.54,227.22l2.8-.71-.24,1.07-3.71.94A3,3,0,0,0,284.54,227.22Z" id="elet9nrt3xhs4" class="animable" style="transform-origin: 285.365px 227.515px;"></path><polygon points="271.83 230.43 277.02 229.12 277.1 230.11 271.83 231.44 271.83 230.43" id="elhda1cx79kvv" class="animable" style="transform-origin: 274.465px 230.28px;"></polygon></g></g><path d="M290.61,402,289,409.35a1.2,1.2,0,0,0,.91,1.44,1,1,0,0,0,.25,0c3.25-.06,6.14-.25,10.19-.25,4.77,0,3.56.56,9.17.63,3.39,0,4-3.81,2.56-4a23.65,23.65,0,0,1-11.59-5.39s.39-1.72.44-2.31,0-2.66,0-2.66l3.23-44.21s-15,1.15-18.22,0l4.37,44.21a9.28,9.28,0,0,0-.36,1.65c0,.37.36,1.06.36,1.42s-.46,1.06-.36,1.42S290.61,402,290.61,402Z" style="fill: rgb(38, 50, 56); transform-origin: 299.375px 381.885px;" id="el15rs2v5qdke" class="animable"></path><path d="M252.22,402l-2.52,7.34a1.06,1.06,0,0,0,.73,1.44l.25,0c3.26-.06,6.17-.25,10.22-.25,4.78,0,3.5.56,9.1.63,3.38,0,4.46-3.81,3.05-4a20.38,20.38,0,0,1-10.93-5.39s.6-1.72.72-2.31.29-2.66.29-2.66l8.66-44.21s-15.11,1.15-18.23,0l-1.05,44.21a10.12,10.12,0,0,0-.56,1.65c0,.37.23,1.06.18,1.42s-.59,1.06-.53,1.42S252.22,402,252.22,402Z" style="fill: rgb(38, 50, 56); transform-origin: 261.635px 381.875px;" id="el6gmkplq7j3o" class="animable"></path><path d="M280.66,294.45s4-.58,11.34-4l5.76-14.83,2.88-.72S305.25,311.15,305,322l-12.15,1.15-8.08-3.16Z" style="fill: rgb(0, 255, 136); transform-origin: 292.835px 299.025px;" id="elehinrqamvfh" class="animable"></path><g id="elw0rpkgqyy9"><path d="M280.66,294.45s4-.58,11.34-4l5.76-14.83,2.88-.72S305.25,311.15,305,322l-12.15,1.15-8.08-3.16Z" style="fill: rgb(255, 255, 255); opacity: 0.5; transform-origin: 292.835px 299.025px;" class="animable"></path></g><g id="ell4cu8z7u16"><polygon points="292.06 290.25 294.07 285.07 295.45 300.34 292.81 304.48 295.19 322.88 292.81 323.1 292.59 323.02 290.27 303.08 292.86 298.98 292.06 290.25" style="fill: rgb(255, 255, 255); opacity: 0.7; transform-origin: 292.86px 304.085px;" class="animable"></polygon></g><polygon points="301.08 317.2 302.37 317.2 306.25 323.1 306.25 331.74 303.09 334.91 301.8 334.91 296.19 331.46 296.19 323.82 301.08 317.2" style="fill: rgb(0, 255, 136); transform-origin: 301.22px 326.055px;" id="el7zjhrn8tf42" class="animable"></polygon><g id="el0c20k2fcl1gw"><polygon points="301.08 317.2 302.37 317.2 306.25 323.1 306.25 331.74 303.09 334.91 301.8 334.91 296.19 331.46 296.19 323.82 301.08 317.2" style="fill: rgb(255, 255, 255); opacity: 0.3; transform-origin: 301.22px 326.055px;" class="animable"></polygon></g><g id="elbs2jcw9s0jt"><polygon points="306.25 323.1 302.37 317.2 297.47 323.82 297.47 331.46 303.09 334.91 306.25 331.74 306.25 323.1" style="fill: rgb(255, 255, 255); opacity: 0.5; transform-origin: 301.86px 326.055px;" class="animable"></polygon></g><path d="M296.71,325.64s-6.54.5-11.16-.73l-.09,3.49a42.79,42.79,0,0,0,11.25.5Z" style="fill: rgb(38, 50, 56); transform-origin: 291.085px 326.987px;" id="eljta6zyvejnh" class="animable"></path><path d="M264.37,229.5l5.54-1.16s2.24-4.47,3.68-5.11c.92-.41,3.33-.3,4,.43,1.25,1.33,1.13,5.63.36,7.28a5.77,5.77,0,0,1-2.66,2,14,14,0,0,1-3.41,0l-6.44,1.86Z" style="fill: rgb(206, 122, 99); transform-origin: 271.45px 228.897px;" id="el6b6c26098q6" class="animable"></path><path d="M249.42,193.08a2.25,2.25,0,0,0-3.66-.58,35.52,35.52,0,0,0-9,18.42c-2.45,14-2.64,24.05,4.8,26.64s27.75-3.89,27.75-3.89l-1.44-6.19s-19.73,2.3-22-.43c-1.87-2.23,2.13-12.59,3.37-16.65S252.77,200,249.42,193.08Z" style="fill: rgb(0, 255, 136); transform-origin: 252.275px 214.986px;" id="elzm8ykm4knzj" class="animable"></path><path d="M250.81,207.8l-2-1.63-1.15-11.43-4-1.34s-7.55,8.64-8.34,23.23c0,0,3.67-1.65,11.73,2.19Z" style="fill: rgb(0, 255, 136); transform-origin: 243.065px 206.11px;" id="elxw6iecep0lg" class="animable"></path><g id="el2ihmp03dk2v"><path d="M250.81,207.8l-2-1.63-1.15-11.43-4-1.34s-7.55,8.64-8.34,23.23c0,0,3.67-1.65,11.73,2.19Z" style="fill: rgb(255, 255, 255); opacity: 0.5; transform-origin: 243.065px 206.11px;" class="animable"></path></g><g id="el3vmcomoculp"><path d="M245.54,218.16c-.57-.24-1.1-.44-1.61-.62l2.57-7.49-1.08-3.52,2.46-9.38.3,3-1.38,6,1.31,3.68Z" style="fill: rgb(255, 255, 255); opacity: 0.7; transform-origin: 246.055px 207.655px;" class="animable"></path></g><path d="M241.7,198.39c-1.29-.35-3.06,2.12-4,5.5s-.59,6.4.7,6.74,3.06-2.12,4-5.5S243,198.73,241.7,198.39Z" style="fill: rgb(0, 255, 136); transform-origin: 240.051px 204.509px;" id="elfbxiur35vg" class="animable"></path><g id="elw068oii414l"><path d="M241.12,199.49c-1-.27-2.47,1.72-3.2,4.45s-.47,5.17.57,5.45,2.47-1.72,3.2-4.45S242.16,199.77,241.12,199.49Z" style="fill: rgb(255, 255, 255); opacity: 0.8; transform-origin: 239.805px 204.441px;" class="animable"></path></g><path d="M269,229.86h-3.15l-1.8-2.88s-9.21.93-14.25,0l-2,2.88-4.54,1.22-.43,5,4.68,2.88s8.07.29,22.32-4.47Z" style="fill: rgb(0, 255, 136); transform-origin: 256.33px 232.972px;" id="el4ygy0euvh7f" class="animable"></path><g id="ely856aso6azc"><path d="M269,229.86h-3.15l-1.8-2.88s-9.21.93-14.25,0l-2,2.88-4.54,1.22-.43,5,4.68,2.88s8.07.29,22.32-4.47Z" style="fill: rgb(255, 255, 255); opacity: 0.5; transform-origin: 256.33px 232.972px;" class="animable"></path></g><g id="elelb97hom8ki"><polygon points="243.23 232.35 249.13 231.99 250.57 230.41 262.95 230.41 264.49 231.99 269.38 231.69 269.56 232.62 264.25 233.24 262.14 231.51 251.13 231.59 249.61 233.38 243.13 233.55 243.23 232.35" style="fill: rgb(255, 255, 255); opacity: 0.7; transform-origin: 256.345px 231.98px;" class="animable"></polygon></g><path d="M250.82,236.38c.19,1.32,3.15,2,6.61,1.51s6.13-1.95,5.94-3.27-3.14-2-6.61-1.51S250.64,235.06,250.82,236.38Z" style="fill: rgb(0, 255, 136); transform-origin: 257.095px 235.5px;" id="elcjd2qbdw6vi" class="animable"></path><g id="elkxtgert1hg8"><path d="M252.07,236.48c.15,1.07,2.54,1.61,5.34,1.22s4.94-1.58,4.79-2.64-2.53-1.61-5.33-1.22S251.92,235.41,252.07,236.48Z" style="fill: rgb(255, 255, 255); opacity: 0.8; transform-origin: 257.135px 235.771px;" class="animable"></path></g><path d="M283.72,252.86l4.75-.45a1.9,1.9,0,0,0,1.73-1.9v-1.58a2,2,0,0,0-2.15-2l-4.74.45a1.91,1.91,0,0,0-1.74,1.9v1.58A2,2,0,0,0,283.72,252.86Z" style="fill: rgb(38, 50, 56); transform-origin: 285.885px 249.895px;" id="ele9lnoeivehr" class="animable"></path><path d="M280.26,294.4l-3.51-13.83-4.15-1.05-7.87,13.25s-5.09.86-8.26-.1v25.54l5.13,2,15.8.48Z" style="fill: rgb(0, 255, 136); transform-origin: 268.365px 300.105px;" id="eljr29vnxnxo" class="animable"></path><g id="el3ufyr7xugfz"><path d="M280.26,294.4l-3.51-13.83-4.15-1.05-7.87,13.25s-5.09.86-8.26-.1v25.54l5.13,2,15.8.48Z" style="fill: rgb(255, 255, 255); opacity: 0.5; transform-origin: 268.365px 300.105px;" class="animable"></path></g><g id="elznwutc6eyci"><polygon points="265.53 320.34 263.08 320.27 268.58 286.29 271.35 281.62 265.53 320.34" style="fill: rgb(255, 255, 255); opacity: 0.7; transform-origin: 267.215px 300.98px;" class="animable"></polygon></g><polygon points="272.46 315.2 273.73 315.39 276.75 321.78 275.52 330.33 271.94 333.02 270.67 332.84 265.6 328.63 266.68 321.07 272.46 315.2" style="fill: rgb(0, 255, 136); transform-origin: 271.175px 324.11px;" id="elc8yzipz0fqs" class="animable"></polygon><g id="el8hetqw3s7ek"><polygon points="272.46 315.2 273.73 315.39 276.75 321.78 275.52 330.33 271.94 333.02 270.67 332.84 265.6 328.63 266.68 321.07 272.46 315.2" style="fill: rgb(255, 255, 255); opacity: 0.3; transform-origin: 271.175px 324.11px;" class="animable"></polygon></g><g id="elq5k42fq4h3"><polygon points="276.75 321.78 273.73 315.39 267.95 321.25 266.87 328.81 271.94 333.02 275.52 330.33 276.75 321.78" style="fill: rgb(255, 255, 255); opacity: 0.5; transform-origin: 271.81px 324.205px;" class="animable"></polygon></g><path d="M266.87,322.82a35.69,35.69,0,0,1-10.36-.72l-.8,3.45a37,37,0,0,0,10.72.51Z" style="fill: rgb(38, 50, 56); transform-origin: 261.29px 324.169px;" id="elgzsrvrl8zh" class="animable"></path><path d="M258.87,251.92v9.93L255,261.7s0-7.13.77-9.78Z" style="fill: rgb(38, 50, 56); transform-origin: 256.935px 256.885px;" id="eldbi386a9ngs" class="animable"></path><path d="M264.73,280.76l1.82-18.14,1.35-.29,1.88.4,10.88-13.21,2.92,1.58L270.45,267l-.18,5.18.21,7.41c1.9.88,6.23,1.93,11.33,2.59l-.66,4.71s-9.89-1.15-14.6-4.46l.2-.67Z" style="fill: rgb(38, 50, 56); transform-origin: 274.155px 268.205px;" id="elq4mr9ue2b1r" class="animable"></path><path d="M269.34,261.18s-10.47-1.63-15.55,0l3.35,6.62,10.11-1.92Z" style="fill: rgb(38, 50, 56); transform-origin: 261.565px 264.128px;" id="elet59mjixrnu" class="animable"></path><g id="el9i2uqph9s1"><path d="M269.34,261.18s-10.47-1.63-15.55,0l3.35,6.62,10.11-1.92Z" style="fill: rgb(255, 255, 255); opacity: 0.2; transform-origin: 261.565px 264.128px;" class="animable"></path></g><path d="M269.34,261.18s-8.45,3.36-15.55,0c0,0,.67,18.72,6.24,21.22,0,0,.76,2.4,6.33,2.2S267.9,275,269.34,261.18Z" style="fill: rgb(38, 50, 56); transform-origin: 261.605px 272.896px;" id="eln4ny8po05za" class="animable"></path><g id="elfhz0pn7tem"><path d="M269.34,261.18s-8.45,3.36-15.55,0c0,0,.67,18.72,6.24,21.22,0,0,.76,2.4,6.33,2.2S267.9,275,269.34,261.18Z" style="fill: rgb(255, 255, 255); opacity: 0.3; transform-origin: 261.605px 272.896px;" class="animable"></path></g><g id="ela095ay42wsr"><polygon points="280.27 250 281.37 249.91 283.58 251.1 281.39 253.76 276.86 254.13 280.27 250" style="opacity: 0.7; transform-origin: 280.22px 252.02px;" class="animable"></polygon></g><g id="ela0vil66cn1j"><path d="M255.19,256.63a29,29,0,0,1,.52-4.32l2.36-.39h.8v4.18Z" style="opacity: 0.7; transform-origin: 257.03px 254.275px;" class="animable"></path></g><polygon points="297.18 246.78 255.03 250.52 255.03 254.75 297.18 250.76 297.18 246.78" style="fill: rgb(38, 50, 56); transform-origin: 276.105px 250.765px;" id="el9v5269g1s3w" class="animable"></polygon><g id="elcctagpxagcb"><path d="M283.72,252.86l4.75-.45a1.9,1.9,0,0,0,1.73-1.9v-1.58a2,2,0,0,0-2.15-2l-4.74.45a1.91,1.91,0,0,0-1.74,1.9v1.58A2,2,0,0,0,283.72,252.86Z" style="fill: rgb(255, 255, 255); opacity: 0.5; transform-origin: 285.885px 249.895px;" class="animable"></path></g><g id="elhd5ow7cxyzf"><path d="M284.42,251.92l3.22-.31a1.29,1.29,0,0,0,1.17-1.29v-1.07a1.32,1.32,0,0,0-1.46-1.32l-3.21.3a1.29,1.29,0,0,0-1.18,1.29v1.07A1.34,1.34,0,0,0,284.42,251.92Z" style="fill: rgb(255, 255, 255); opacity: 0.5; transform-origin: 285.885px 249.924px;" class="animable"></path></g><polygon points="293.77 356.37 301.22 355.79 304.12 361.56 301.55 393.06 300.5 395.69 295.79 395.69 293.77 392.81 291.13 362.27 293.77 356.37" style="fill: rgb(0, 255, 136); transform-origin: 297.625px 375.74px;" id="el7dvto33ncvk" class="animable"></polygon><g id="elgytypplhlb"><polygon points="293.77 356.37 301.22 355.79 304.12 361.56 301.55 393.06 300.5 395.69 295.79 395.69 293.77 392.81 291.13 362.27 293.77 356.37" style="fill: rgb(255, 255, 255); opacity: 0.3; transform-origin: 297.625px 375.74px;" class="animable"></polygon></g><g id="el8srwxgbc7y3"><polygon points="295.45 356.37 301.22 355.79 304.12 361.56 301.55 393.06 300.5 395.69 297.47 395.69 295.45 392.81 292.81 362.27 295.45 356.37" style="fill: rgb(255, 255, 255); opacity: 0.5; transform-origin: 298.465px 375.74px;" class="animable"></polygon></g><path d="M299.86,382c1.85,0,3.44-3.87,3.56-8.73s-1.29-8.83-3.14-8.88-3.45,3.86-3.56,8.72S298,382,299.86,382Z" style="fill: rgb(0, 255, 136); transform-origin: 300.07px 373.195px;" id="elxpwhbtb7wo" class="animable"></path><g id="eloizmzo5uw5r"><path d="M300.28,380.31c1.49,0,2.78-3.12,2.87-7s-1-7.14-2.54-7.18-2.78,3.12-2.87,7.05S298.78,380.28,300.28,380.31Z" style="fill: rgb(255, 255, 255); opacity: 0.8; transform-origin: 300.445px 373.22px;" class="animable"></path></g><polygon points="260.98 356.37 268.5 355.79 270.7 361.56 264.25 393.06 262.88 395.69 258.17 395.69 256.5 392.81 257.62 362.27 260.98 356.37" style="fill: rgb(0, 255, 136); transform-origin: 263.6px 375.74px;" id="elnfri4u18c9" class="animable"></polygon><g id="elsh7hxeg8v4"><polygon points="260.98 356.37 268.5 355.79 270.7 361.56 264.25 393.06 262.88 395.69 258.17 395.69 256.5 392.81 257.62 362.27 260.98 356.37" style="fill: rgb(255, 255, 255); opacity: 0.3; transform-origin: 263.6px 375.74px;" class="animable"></polygon></g><g id="elwy4s3x96c0a"><polygon points="262.66 356.37 268.5 355.79 270.7 361.56 264.25 393.06 262.88 395.69 259.85 395.69 258.19 392.81 259.3 362.27 262.66 356.37" style="fill: rgb(255, 255, 255); opacity: 0.5; transform-origin: 264.445px 375.74px;" class="animable"></polygon></g><path d="M264,381.64c1.77,0,3.76-3.7,4.44-8.37s-.2-8.48-2-8.53-3.76,3.71-4.44,8.38S262.2,381.6,264,381.64Z" style="fill: rgb(0, 255, 136); transform-origin: 265.22px 373.19px;" id="els0ho4cpwcx" class="animable"></path><g id="elrfs89avkrmn"><path d="M264.57,380c1.43,0,3-3,3.59-6.77s-.16-6.85-1.59-6.88-3,3-3.59,6.76S263.14,380,264.57,380Z" style="fill: rgb(255, 255, 255); opacity: 0.8; transform-origin: 265.57px 373.175px;" class="animable"></path></g><path d="M274.13,155.48s9.16,12.71,1.62,17.28-8.58-17.24-8.58-17.24Z" style="fill: rgb(0, 255, 136); transform-origin: 272.949px 164.435px;" id="el6pra0nwp5dh" class="animable"></path><g id="elxgpqkerfz5"><path d="M274.13,155.48s9.16,12.71,1.62,17.28-8.58-17.24-8.58-17.24Z" style="opacity: 0.3; transform-origin: 272.949px 164.435px;" class="animable"></path></g><path d="M257.78,171.63l11.7,6.52c-.47,4-.09,8,5.39,8.66-.26,1.85-1.57,3.14-4.11,3.73-3.31,1-5.85,1.57-8.87-.12-1.18-.66-2.59-1.25-2.12-2.6C261.34,183.23,259.34,175.86,257.78,171.63Z" style="fill: rgb(206, 122, 99); transform-origin: 266.325px 181.563px;" id="eljoku7gvnmlf" class="animable"></path><g id="ely4nycnhwfne"><path d="M262.55,174.29l6.93,3.86a14.23,14.23,0,0,0-.12,2.92c-2.3.71-6-1.15-6.6-3.39A10.18,10.18,0,0,1,262.55,174.29Z" style="opacity: 0.2; isolation: isolate; transform-origin: 265.987px 177.757px;" class="animable"></path></g><path d="M256.45,163.44c1.2,6.93,1.56,11.05,5.48,14.2,5.9,4.76,14.16.53,15.06-6.64.8-6.45-1.3-16.69-8.44-18.66a9.7,9.7,0,0,0-12.1,11.1Z" style="fill: rgb(206, 122, 99); transform-origin: 266.721px 165.829px;" id="el9v2bq133oa9" class="animable"></path><path d="M276.47,160.39s1.27,3,.88,5.18a53.75,53.75,0,0,1-5.44-.95,13.29,13.29,0,0,1-5,2.38c-2.62.5-11-.58-11-.58L255.8,164s11.48-3,15.88-3.47S276.47,160.39,276.47,160.39Z" style="fill: rgb(0, 255, 136); transform-origin: 266.612px 163.705px;" id="elrs7rxkescrc" class="animable"></path><path d="M253.91,170.67a6.6,6.6,0,0,0,4.28,2.75c2.31.39,3.24-1.74,2.42-3.79-.75-1.86-2.85-4.28-5.09-3.74A3,3,0,0,0,253.91,170.67Z" style="fill: rgb(206, 122, 99); transform-origin: 257.079px 169.64px;" id="elrgnut1xndj" class="animable"></path><path d="M271.44,162.54a20.25,20.25,0,0,0,3.26,4.53,3.33,3.33,0,0,1-2.66.84Z" style="fill: rgb(186, 77, 60); transform-origin: 273.07px 165.238px;" id="elj8v0vx6g7v" class="animable"></path><path d="M265.5,159.56a.42.42,0,0,1-.09-.14.33.33,0,0,1,.22-.42,3.36,3.36,0,0,1,3,.43.34.34,0,0,1,.06.47h0a.34.34,0,0,1-.47,0h0a2.72,2.72,0,0,0-2.4-.32A.32.32,0,0,1,265.5,159.56Z" style="fill: rgb(38, 50, 56); transform-origin: 267.076px 159.409px;" id="elqfv1ra4nj4" class="animable"></path><path d="M275.5,158.12a.39.39,0,0,1-.3.13,2.59,2.59,0,0,0-2.27.81.34.34,0,0,1-.53-.43,3.31,3.31,0,0,1,2.87-1.06.34.34,0,0,1,.3.37h0A.36.36,0,0,1,275.5,158.12Z" style="fill: rgb(38, 50, 56); transform-origin: 273.948px 158.365px;" id="elcmbssewb3" class="animable"></path><path d="M272.9,170.15a40.89,40.89,0,0,0-7.92.33c.86,1.68,2.27,3,5.24,2.65a2.71,2.71,0,0,0,2.69-2.73A2,2,0,0,0,272.9,170.15Z" style="fill: rgb(38, 50, 56); transform-origin: 268.945px 171.637px;" id="el9mtxhz1sso8" class="animable"></path><path d="M268.71,171.88a5.45,5.45,0,0,1,3.32.52,3.27,3.27,0,0,1-1.8.71,5.43,5.43,0,0,1-3.32-.52A3.07,3.07,0,0,1,268.71,171.88Z" style="fill: rgb(160, 39, 36); transform-origin: 269.47px 172.495px;" id="elkv0wpa445xf" class="animable"></path><path d="M272.63,170.13a1.22,1.22,0,0,1-.82,1,32,32,0,0,1-5.18.07,1.66,1.66,0,0,1-1.39-.72A46.77,46.77,0,0,1,272.63,170.13Z" style="fill: rgb(255, 255, 255); transform-origin: 268.935px 170.69px;" id="elu7vulhjd88d" class="animable"></path><path d="M260.61,169.63s2.92,12.68,13.79,6.92a5.92,5.92,0,0,1-3,2.8c-1.38.51-7.66,3.1-12.46-7.65Z" style="fill: rgb(38, 50, 56); transform-origin: 266.67px 174.81px;" id="el249ty8tsk2v" class="animable"></path><path d="M276,156.5a23.38,23.38,0,0,0-12.76,2.08s-.55,16.53-5.56,15.4-8.09-18.26,1.55-22.79C268.54,146.8,276,156.5,276,156.5Z" style="fill: rgb(0, 255, 136); transform-origin: 264.473px 162.043px;" id="elt8jdcbb7j1n" class="animable"></path><g id="elpypulixtjz"><path d="M276,156.5a23.38,23.38,0,0,0-12.76,2.08s-.55,16.53-5.56,15.4-8.09-18.26,1.55-22.79C268.54,146.8,276,156.5,276,156.5Z" style="fill: rgb(255, 255, 255); opacity: 0.5; transform-origin: 264.473px 162.043px;" class="animable"></path></g><polygon points="264.42 149.43 270.31 148.5 273.37 151.15 271.38 155.78 270.13 156.88 262.91 154.69 263.18 150.52 264.42 149.43" style="fill: rgb(0, 255, 136); transform-origin: 268.14px 152.69px;" id="elmis0wmgton9" class="animable"></polygon><g id="elp61qbuxf9ic"><polygon points="264.42 149.43 270.31 148.5 273.37 151.15 271.38 155.78 270.13 156.88 262.91 154.69 263.18 150.52 264.42 149.43" style="fill: rgb(255, 255, 255); opacity: 0.3; transform-origin: 268.14px 152.69px;" class="animable"></polygon></g><g id="elm87ee5ka7o"><polygon points="270.31 148.5 264.42 149.43 264.15 153.6 271.38 155.78 273.37 151.15 270.31 148.5" style="fill: rgb(255, 255, 255); opacity: 0.6; transform-origin: 268.76px 152.14px;" class="animable"></polygon></g><g id="elx3v3c4l2m7o"><path d="M259.66,165.78c.82,2.94.2,5.69-1.38,6.12s-3.52-1.6-4.33-4.55a10.7,10.7,0,0,1-.24-1.06l-.65-.6a18.7,18.7,0,0,1,.56-7.68l2.63,3.25C257.6,161.61,259,163.38,259.66,165.78Z" style="opacity: 0.1; transform-origin: 256.457px 164.984px;" class="animable"></path></g><path d="M257.45,164.32l-7.84-9.66a.7.7,0,0,0-1.23.58l.67,3.33,2,2.83.21,3.45,3.75,3.46Z" style="fill: rgb(0, 255, 136); transform-origin: 252.908px 161.355px;" id="el8oo3p0dtavr" class="animable"></path><g id="el51y6r3givcd"><path d="M257.45,164.32l-7.84-9.66a.7.7,0,0,0-1.23.58l.67,3.33,2,2.83.21,3.45,3.75,3.46Z" style="fill: rgb(255, 255, 255); opacity: 0.7; transform-origin: 252.908px 161.355px;" class="animable"></path></g><path d="M253.87,168c.74,2.69,2.5,4.54,3.94,4.14s2-2.89,1.26-5.57-2.5-4.54-3.94-4.14S253.13,165.36,253.87,168Z" style="fill: rgb(0, 255, 136); transform-origin: 256.47px 167.285px;" id="el3kia8z6x7vt" class="animable"></path><g id="elwov5f7597co"><path d="M253.87,168c.47,1.71,1.6,2.9,2.51,2.64s1.28-1.84.81-3.55-1.6-2.9-2.52-2.64S253.39,166.33,253.87,168Z" style="fill: rgb(255, 255, 255); opacity: 0.8; transform-origin: 255.526px 167.545px;" class="animable"></path></g><path d="M273.08,179.76h-1.17s-.75,5.26-2.76,5.67c-2.88.57-11.62-3.55-11.62-3.55L256.19,183l3.16,5.36,10.28,2.4,3.45-3.93.87-2.79Z" style="fill: rgb(0, 255, 136); transform-origin: 265.07px 185.26px;" id="el0rfea6kcdh2" class="animable"></path><g id="elfsyy7c7rtnn"><path d="M273.08,179.76h-1.17s-.75,5.26-2.76,5.67c-2.88.57-11.62-3.55-11.62-3.55L256.19,183l3.16,5.36,10.28,2.4,3.45-3.93.87-2.79Z" style="fill: rgb(255, 255, 255); opacity: 0.4; transform-origin: 265.07px 185.26px;" class="animable"></path></g><path d="M254.7,186.93s10.61,7,16.37,5.89,3.72-9.64,3.72-9.64l-1.71-3.42s-.19,7.2-3.84,7.4S256.19,183,256.19,183Z" style="fill: rgb(0, 255, 136); transform-origin: 264.92px 186.35px;" id="el2ps97qirqb4" class="animable"></path><g id="elw12bkfxjgxp"><rect x="314.1" y="150.43" width="7.94" height="15.32" rx="1.74" style="fill: rgb(0, 255, 136); transform-origin: 318.07px 158.09px; transform: rotate(-172.86deg);" class="animable"></rect></g><g id="elyu2ox7auon"><rect x="314.1" y="150.43" width="7.94" height="15.32" rx="1.74" style="fill: rgb(255, 255, 255); opacity: 0.3; transform-origin: 318.07px 158.09px; transform: rotate(-172.86deg);" class="animable"></rect></g><g id="elf0vt4ghidmg"><rect x="313.33" y="150.34" width="7.94" height="15.32" rx="1.74" style="fill: rgb(0, 255, 136); transform-origin: 317.3px 158px; transform: rotate(-172.86deg);" class="animable"></rect></g><path d="M316.08,150.92c0,.75.63.92,1.4,1l1.15.15c.77.09,1.41.08,1.61-.64a1.54,1.54,0,0,1,.91,1.6l-1.35,10.83a1.55,1.55,0,0,1-1.72,1.34l-3.3-.42a1.53,1.53,0,0,1-1.33-1.72l1.35-10.83A1.54,1.54,0,0,1,316.08,150.92Z" style="fill: rgb(38, 50, 56); transform-origin: 317.299px 158.065px;" id="el58ecbxdjzqe" class="animable"></path><g id="el076xkp4r73v"><path d="M316.08,150.92c0,.75.63.92,1.4,1l1.15.15c.77.09,1.41.08,1.61-.64a1.54,1.54,0,0,1,.91,1.6l-1.35,10.83a1.55,1.55,0,0,1-1.72,1.34l-3.3-.42a1.53,1.53,0,0,1-1.33-1.72l1.35-10.83A1.54,1.54,0,0,1,316.08,150.92Z" style="fill: rgb(255, 255, 255); opacity: 0.5; transform-origin: 317.299px 158.065px;" class="animable"></path></g></g><defs>     <filter id="active" height="200%">         <feMorphology in="SourceAlpha" result="DILATED" operator="dilate" radius="2"></feMorphology>                <feFlood flood-color="#32DFEC" flood-opacity="1" result="PINK"></feFlood>        <feComposite in="PINK" in2="DILATED" operator="in" result="OUTLINE"></feComposite>        <feMerge>            <feMergeNode in="OUTLINE"></feMergeNode>            <feMergeNode in="SourceGraphic"></feMergeNode>        </feMerge>    </filter>    <filter id="hover" height="200%">        <feMorphology in="SourceAlpha" result="DILATED" operator="dilate" radius="2"></feMorphology>                <feFlood flood-color="#ff0000" flood-opacity="0.5" result="PINK"></feFlood>        <feComposite in="PINK" in2="DILATED" operator="in" result="OUTLINE"></feComposite>        <feMerge>            <feMergeNode in="OUTLINE"></feMergeNode>            <feMergeNode in="SourceGraphic"></feMergeNode>        </feMerge>            <feColorMatrix type="matrix" values="0   0   0   0   0                0   1   0   0   0                0   0   0   0   0                0   0   0   1   0 "></feColorMatrix>    </filter></defs></svg>